%TF.GenerationSoftware,KiCad,Pcbnew,(6.0.4)*%
%TF.CreationDate,2022-10-20T23:25:51-04:00*%
%TF.ProjectId,half-swept,68616c66-2d73-4776-9570-742e6b696361,rev?*%
%TF.SameCoordinates,Original*%
%TF.FileFunction,Paste,Bot*%
%TF.FilePolarity,Positive*%
%FSLAX46Y46*%
G04 Gerber Fmt 4.6, Leading zero omitted, Abs format (unit mm)*
G04 Created by KiCad (PCBNEW (6.0.4)) date 2022-10-20 23:25:51*
%MOMM*%
%LPD*%
G01*
G04 APERTURE LIST*
G04 Aperture macros list*
%AMRoundRect*
0 Rectangle with rounded corners*
0 $1 Rounding radius*
0 $2 $3 $4 $5 $6 $7 $8 $9 X,Y pos of 4 corners*
0 Add a 4 corners polygon primitive as box body*
4,1,4,$2,$3,$4,$5,$6,$7,$8,$9,$2,$3,0*
0 Add four circle primitives for the rounded corners*
1,1,$1+$1,$2,$3*
1,1,$1+$1,$4,$5*
1,1,$1+$1,$6,$7*
1,1,$1+$1,$8,$9*
0 Add four rect primitives between the rounded corners*
20,1,$1+$1,$2,$3,$4,$5,0*
20,1,$1+$1,$4,$5,$6,$7,0*
20,1,$1+$1,$6,$7,$8,$9,0*
20,1,$1+$1,$8,$9,$2,$3,0*%
G04 Aperture macros list end*
%ADD10RoundRect,0.082000X-0.686681X0.389330X-0.743855X-0.264174X0.686681X-0.389330X0.743855X0.264174X0*%
%ADD11RoundRect,0.082000X-0.718000X0.328000X-0.718000X-0.328000X0.718000X-0.328000X0.718000X0.328000X0*%
%ADD12RoundRect,0.082000X-0.608642X0.502656X-0.778427X-0.130992X0.608642X-0.502656X0.778427X0.130992X0*%
%ADD13RoundRect,0.082000X-0.512110X0.600709X-0.789348X0.006171X0.512110X-0.600709X0.789348X-0.006171X0*%
G04 APERTURE END LIST*
D10*
%TO.C,D12*%
X200503283Y-106168674D03*
X200372549Y-107662966D03*
X205552762Y-108116176D03*
X205683495Y-106621884D03*
%TD*%
D11*
%TO.C,D16*%
X164935270Y-55073095D03*
X164935270Y-56573095D03*
X170135270Y-56573095D03*
X170135270Y-55073095D03*
%TD*%
%TO.C,D8*%
X182935269Y-82207095D03*
X182935269Y-83707095D03*
X188135269Y-83707095D03*
X188135269Y-82207095D03*
%TD*%
%TO.C,D2*%
X182935270Y-48073095D03*
X182935270Y-49573095D03*
X188135270Y-49573095D03*
X188135270Y-48073095D03*
%TD*%
D12*
%TO.C,D15*%
X220832778Y-109298817D03*
X220444549Y-110747706D03*
X225467364Y-112093565D03*
X225855592Y-110644676D03*
%TD*%
D11*
%TO.C,D11*%
X200935270Y-87541096D03*
X200935270Y-89041096D03*
X206135270Y-89041096D03*
X206135270Y-87541096D03*
%TD*%
%TO.C,D14*%
X200935270Y-70523096D03*
X200935270Y-72023096D03*
X206135270Y-72023096D03*
X206135270Y-70523096D03*
%TD*%
%TO.C,D10*%
X164935270Y-89065095D03*
X164935270Y-90565095D03*
X170135270Y-90565095D03*
X170135270Y-89065095D03*
%TD*%
%TO.C,D1*%
X146935270Y-67073095D03*
X146935270Y-68573095D03*
X152135270Y-68573095D03*
X152135270Y-67073095D03*
%TD*%
%TO.C,D9*%
X218915270Y-90081095D03*
X218915270Y-91581095D03*
X224115270Y-91581095D03*
X224115270Y-90081095D03*
%TD*%
%TO.C,D17*%
X200935271Y-53573095D03*
X200935271Y-55073095D03*
X206135271Y-55073095D03*
X206135271Y-53573095D03*
%TD*%
D13*
%TO.C,D18*%
X240342735Y-115920512D03*
X239708808Y-117279974D03*
X244421608Y-119477589D03*
X245055536Y-118118127D03*
%TD*%
D11*
%TO.C,D4*%
X146935270Y-84123095D03*
X146935270Y-85623095D03*
X152135270Y-85623095D03*
X152135270Y-84123095D03*
%TD*%
%TO.C,D3*%
X218935269Y-56073095D03*
X218935269Y-57573095D03*
X224135269Y-57573095D03*
X224135269Y-56073095D03*
%TD*%
%TO.C,D7*%
X146935271Y-101073095D03*
X146935271Y-102573095D03*
X152135271Y-102573095D03*
X152135271Y-101073095D03*
%TD*%
%TO.C,D5*%
X182935270Y-65189095D03*
X182935270Y-66689095D03*
X188135270Y-66689095D03*
X188135270Y-65189095D03*
%TD*%
%TO.C,D6*%
X218915270Y-73063096D03*
X218915270Y-74563096D03*
X224115270Y-74563096D03*
X224115270Y-73063096D03*
%TD*%
%TO.C,D13*%
X164935271Y-72047095D03*
X164935271Y-73547095D03*
X170135271Y-73547095D03*
X170135271Y-72047095D03*
%TD*%
M02*
