%TF.GenerationSoftware,KiCad,Pcbnew,(6.0.4)*%
%TF.CreationDate,2022-10-20T23:25:51-04:00*%
%TF.ProjectId,half-swept,68616c66-2d73-4776-9570-742e6b696361,rev?*%
%TF.SameCoordinates,Original*%
%TF.FileFunction,Profile,NP*%
%FSLAX46Y46*%
G04 Gerber Fmt 4.6, Leading zero omitted, Abs format (unit mm)*
G04 Created by KiCad (PCBNEW (6.0.4)) date 2022-10-20 23:25:51*
%MOMM*%
%LPD*%
G01*
G04 APERTURE LIST*
%TA.AperFunction,Profile*%
%ADD10C,0.050000*%
%TD*%
%TA.AperFunction,Profile*%
%ADD11C,0.100000*%
%TD*%
G04 APERTURE END LIST*
D10*
X141145325Y-63799798D02*
X141185524Y-113068119D01*
X249697280Y-59206870D02*
G75*
G03*
X249335271Y-58403096I-1044746J12870D01*
G01*
X142572279Y-61786108D02*
G75*
G03*
X141145325Y-63799798I2444955J-3244992D01*
G01*
X249335271Y-58403097D02*
G75*
G03*
X196835272Y-44253095I-52476917J-90233333D01*
G01*
X242678448Y-132937300D02*
G75*
G03*
X143223270Y-114904215I-99965884J-268055220D01*
G01*
X141185531Y-113068118D02*
G75*
G03*
X143223270Y-114904215I1978003J146418D01*
G01*
X249697270Y-59206870D02*
X249697271Y-119903095D01*
X196835272Y-44253094D02*
G75*
G03*
X142572269Y-61786095I-1656758J-87608456D01*
G01*
X249585270Y-120403094D02*
G75*
G03*
X249697271Y-119903095I-1060036J499994D01*
G01*
X242678429Y-132937332D02*
G75*
G03*
X243885271Y-132603095I439905J757532D01*
G01*
X249585270Y-120403094D02*
X243885271Y-132603095D01*
D11*
%TO.C,D12*%
X201273235Y-107694428D02*
X201395749Y-106294093D01*
X202367327Y-105578893D02*
X203950186Y-105717375D01*
X203688717Y-108705958D02*
X202105860Y-108567476D01*
X204782809Y-106590422D02*
X204660295Y-107990757D01*
X203950186Y-105717375D02*
G75*
G03*
X204207436Y-105671322I43577J498098D01*
G01*
X204851008Y-106378682D02*
G75*
G03*
X204782809Y-106590421I429880J-255312D01*
G01*
X203934064Y-108795983D02*
G75*
G03*
X204690690Y-108211122I288923J408073D01*
G01*
X201205039Y-107906169D02*
G75*
G03*
X201848608Y-108613527I429895J-255318D01*
G01*
X202121980Y-105488867D02*
G75*
G03*
X202367326Y-105578892I288928J408082D01*
G01*
X202121981Y-105488866D02*
G75*
G03*
X201365354Y-106073727I-288925J-408071D01*
G01*
X201205035Y-107906167D02*
G75*
G03*
X201273235Y-107694429I-429888J255318D01*
G01*
X204660296Y-107990757D02*
G75*
G03*
X204690690Y-108211123I498087J-43579D01*
G01*
X204851009Y-106378682D02*
G75*
G03*
X204207436Y-105671322I-429900J255316D01*
G01*
X201395767Y-106294095D02*
G75*
G03*
X201365354Y-106073727I-498120J43538D01*
G01*
X202105860Y-108567477D02*
G75*
G03*
X201848609Y-108613529I-43577J-498106D01*
G01*
X203934064Y-108795983D02*
G75*
G03*
X203688717Y-108705958I-288927J-408081D01*
G01*
%TO.C,D16*%
X165835271Y-56525937D02*
X165835271Y-55120253D01*
X169235269Y-55120253D02*
X169235269Y-56525937D01*
X166740818Y-54323096D02*
X168329723Y-54323096D01*
X168329722Y-57323095D02*
X166740818Y-57323095D01*
X166740818Y-57323096D02*
G75*
G03*
X166488560Y-57391394I2J-500009D01*
G01*
X169284754Y-54903375D02*
G75*
G03*
X169235269Y-55120252I450505J-216876D01*
G01*
X168581981Y-57391394D02*
G75*
G03*
X169284754Y-56742814I252259J431700D01*
G01*
X168329723Y-54323096D02*
G75*
G03*
X168581981Y-54254797I-3J500009D01*
G01*
X169235269Y-56525937D02*
G75*
G03*
X169284754Y-56742815I499990J-2D01*
G01*
X165785785Y-56742814D02*
G75*
G03*
X165835271Y-56525938I-450505J216879D01*
G01*
X165835289Y-55120253D02*
G75*
G03*
X165785786Y-54903375I-500019J-42D01*
G01*
X166488560Y-54254795D02*
G75*
G03*
X165785786Y-54903375I-252260J-431700D01*
G01*
X169284753Y-54903375D02*
G75*
G03*
X168581981Y-54254797I-450514J216878D01*
G01*
X168581981Y-57391394D02*
G75*
G03*
X168329722Y-57323095I-252261J-431710D01*
G01*
X166488559Y-54254796D02*
G75*
G03*
X166740817Y-54323095I252261J431711D01*
G01*
X165785789Y-56742816D02*
G75*
G03*
X166488559Y-57391392I450511J-216879D01*
G01*
%TO.C,D8*%
X183835270Y-83659937D02*
X183835270Y-82254253D01*
X187235268Y-82254253D02*
X187235268Y-83659937D01*
X184740817Y-81457096D02*
X186329722Y-81457096D01*
X186329721Y-84457095D02*
X184740817Y-84457095D01*
X186581980Y-84525394D02*
G75*
G03*
X187284753Y-83876814I252259J431700D01*
G01*
X187284752Y-82037375D02*
G75*
G03*
X186581980Y-81388797I-450514J216878D01*
G01*
X184740817Y-84457096D02*
G75*
G03*
X184488559Y-84525394I2J-500009D01*
G01*
X183785788Y-83876816D02*
G75*
G03*
X184488558Y-84525392I450511J-216879D01*
G01*
X183785784Y-83876814D02*
G75*
G03*
X183835270Y-83659938I-450505J216879D01*
G01*
X184488559Y-81388795D02*
G75*
G03*
X183785785Y-82037375I-252260J-431700D01*
G01*
X187235268Y-83659937D02*
G75*
G03*
X187284753Y-83876815I499990J-2D01*
G01*
X184488558Y-81388796D02*
G75*
G03*
X184740816Y-81457095I252261J431711D01*
G01*
X186329722Y-81457096D02*
G75*
G03*
X186581980Y-81388797I-3J500009D01*
G01*
X187284753Y-82037375D02*
G75*
G03*
X187235268Y-82254252I450505J-216876D01*
G01*
X186581980Y-84525394D02*
G75*
G03*
X186329721Y-84457095I-252261J-431710D01*
G01*
X183835288Y-82254253D02*
G75*
G03*
X183785785Y-82037375I-500019J-42D01*
G01*
%TO.C,D2*%
X183835271Y-49525937D02*
X183835271Y-48120253D01*
X187235269Y-48120253D02*
X187235269Y-49525937D01*
X186329722Y-50323095D02*
X184740818Y-50323095D01*
X184740818Y-47323096D02*
X186329723Y-47323096D01*
X183785789Y-49742816D02*
G75*
G03*
X184488559Y-50391392I450511J-216879D01*
G01*
X187284753Y-47903375D02*
G75*
G03*
X186581981Y-47254797I-450514J216878D01*
G01*
X186581981Y-50391394D02*
G75*
G03*
X187284754Y-49742814I252259J431700D01*
G01*
X184488559Y-47254796D02*
G75*
G03*
X184740817Y-47323095I252261J431711D01*
G01*
X186581981Y-50391394D02*
G75*
G03*
X186329722Y-50323095I-252261J-431710D01*
G01*
X186329723Y-47323096D02*
G75*
G03*
X186581981Y-47254797I-3J500009D01*
G01*
X184488560Y-47254795D02*
G75*
G03*
X183785786Y-47903375I-252260J-431700D01*
G01*
X187284754Y-47903375D02*
G75*
G03*
X187235269Y-48120252I450505J-216876D01*
G01*
X183785785Y-49742814D02*
G75*
G03*
X183835271Y-49525938I-450505J216879D01*
G01*
X184740818Y-50323096D02*
G75*
G03*
X184488560Y-50391394I2J-500009D01*
G01*
X187235269Y-49525937D02*
G75*
G03*
X187284754Y-49742815I499990J-2D01*
G01*
X183835289Y-48120253D02*
G75*
G03*
X183785786Y-47903375I-500019J-42D01*
G01*
%TO.C,D15*%
X222770917Y-109041684D02*
X224305682Y-109452923D01*
X224974053Y-110457290D02*
X224610235Y-111815076D01*
X223529224Y-112350699D02*
X221994460Y-111939460D01*
X221326089Y-110935092D02*
X221689907Y-109577305D01*
X221994460Y-111939461D02*
G75*
G03*
X221733121Y-111940143I-129410J-482972D01*
G01*
X221222158Y-111131772D02*
G75*
G03*
X221326089Y-110935093I-379023J326089D01*
G01*
X221222160Y-111131774D02*
G75*
G03*
X221733120Y-111940141I379028J-326090D01*
G01*
X222544933Y-108910420D02*
G75*
G03*
X221698240Y-109355010I-355397J-351701D01*
G01*
X225077984Y-110260609D02*
G75*
G03*
X224974053Y-110457289I379014J-326081D01*
G01*
X223755210Y-112481960D02*
G75*
G03*
X223529224Y-112350699I-355404J-351716D01*
G01*
X222544932Y-108910421D02*
G75*
G03*
X222770917Y-109041682I355400J351710D01*
G01*
X224305682Y-109452922D02*
G75*
G03*
X224567021Y-109452240I129409J482964D01*
G01*
X225077984Y-110260609D02*
G75*
G03*
X224567021Y-109452240I-379033J326089D01*
G01*
X221689924Y-109577310D02*
G75*
G03*
X221698240Y-109355010I-482992J129374D01*
G01*
X223755210Y-112481960D02*
G75*
G03*
X224601902Y-112037371I355396J351701D01*
G01*
X224610234Y-111815076D02*
G75*
G03*
X224601901Y-112037372I482954J-129409D01*
G01*
%TO.C,D11*%
X201835271Y-88993938D02*
X201835271Y-87588254D01*
X202740818Y-86791097D02*
X204329723Y-86791097D01*
X205235269Y-87588254D02*
X205235269Y-88993938D01*
X204329722Y-89791096D02*
X202740818Y-89791096D01*
X202740818Y-89791097D02*
G75*
G03*
X202488560Y-89859395I2J-500009D01*
G01*
X201835289Y-87588254D02*
G75*
G03*
X201785786Y-87371376I-500019J-42D01*
G01*
X204581981Y-89859395D02*
G75*
G03*
X204329722Y-89791096I-252261J-431710D01*
G01*
X205235269Y-88993938D02*
G75*
G03*
X205284754Y-89210816I499990J-2D01*
G01*
X205284754Y-87371376D02*
G75*
G03*
X205235269Y-87588253I450505J-216876D01*
G01*
X204581981Y-89859395D02*
G75*
G03*
X205284754Y-89210815I252259J431700D01*
G01*
X201785785Y-89210815D02*
G75*
G03*
X201835271Y-88993939I-450505J216879D01*
G01*
X201785789Y-89210817D02*
G75*
G03*
X202488559Y-89859393I450511J-216879D01*
G01*
X204329723Y-86791097D02*
G75*
G03*
X204581981Y-86722798I-3J500009D01*
G01*
X202488560Y-86722796D02*
G75*
G03*
X201785786Y-87371376I-252260J-431700D01*
G01*
X205284753Y-87371376D02*
G75*
G03*
X204581981Y-86722798I-450514J216878D01*
G01*
X202488559Y-86722797D02*
G75*
G03*
X202740817Y-86791096I252261J431711D01*
G01*
%TO.C,D14*%
X204329722Y-72773096D02*
X202740818Y-72773096D01*
X201835271Y-71975938D02*
X201835271Y-70570254D01*
X205235269Y-70570254D02*
X205235269Y-71975938D01*
X202740818Y-69773097D02*
X204329723Y-69773097D01*
X204329723Y-69773097D02*
G75*
G03*
X204581981Y-69704798I-3J500009D01*
G01*
X201785785Y-72192815D02*
G75*
G03*
X201835271Y-71975939I-450505J216879D01*
G01*
X201785789Y-72192817D02*
G75*
G03*
X202488559Y-72841393I450511J-216879D01*
G01*
X202488559Y-69704797D02*
G75*
G03*
X202740817Y-69773096I252261J431711D01*
G01*
X201835289Y-70570254D02*
G75*
G03*
X201785786Y-70353376I-500019J-42D01*
G01*
X204581981Y-72841395D02*
G75*
G03*
X205284754Y-72192815I252259J431700D01*
G01*
X204581981Y-72841395D02*
G75*
G03*
X204329722Y-72773096I-252261J-431710D01*
G01*
X202488560Y-69704796D02*
G75*
G03*
X201785786Y-70353376I-252260J-431700D01*
G01*
X202740818Y-72773097D02*
G75*
G03*
X202488560Y-72841395I2J-500009D01*
G01*
X205284754Y-70353376D02*
G75*
G03*
X205235269Y-70570253I450505J-216876D01*
G01*
X205284753Y-70353376D02*
G75*
G03*
X204581981Y-69704798I-450514J216878D01*
G01*
X205235269Y-71975938D02*
G75*
G03*
X205284754Y-72192816I499990J-2D01*
G01*
%TO.C,D10*%
X166740818Y-88315096D02*
X168329723Y-88315096D01*
X168329722Y-91315095D02*
X166740818Y-91315095D01*
X165835271Y-90517937D02*
X165835271Y-89112253D01*
X169235269Y-89112253D02*
X169235269Y-90517937D01*
X169284754Y-88895375D02*
G75*
G03*
X169235269Y-89112252I450505J-216876D01*
G01*
X168581981Y-91383394D02*
G75*
G03*
X169284754Y-90734814I252259J431700D01*
G01*
X168581981Y-91383394D02*
G75*
G03*
X168329722Y-91315095I-252261J-431710D01*
G01*
X168329723Y-88315096D02*
G75*
G03*
X168581981Y-88246797I-3J500009D01*
G01*
X166740818Y-91315096D02*
G75*
G03*
X166488560Y-91383394I2J-500009D01*
G01*
X165785789Y-90734816D02*
G75*
G03*
X166488559Y-91383392I450511J-216879D01*
G01*
X169235269Y-90517937D02*
G75*
G03*
X169284754Y-90734815I499990J-2D01*
G01*
X166488560Y-88246795D02*
G75*
G03*
X165785786Y-88895375I-252260J-431700D01*
G01*
X165785785Y-90734814D02*
G75*
G03*
X165835271Y-90517938I-450505J216879D01*
G01*
X166488559Y-88246796D02*
G75*
G03*
X166740817Y-88315095I252261J431711D01*
G01*
X165835289Y-89112253D02*
G75*
G03*
X165785786Y-88895375I-500019J-42D01*
G01*
X169284753Y-88895375D02*
G75*
G03*
X168581981Y-88246797I-450514J216878D01*
G01*
%TO.C,D1*%
X147835271Y-68525937D02*
X147835271Y-67120253D01*
X151235269Y-67120253D02*
X151235269Y-68525937D01*
X150329722Y-69323095D02*
X148740818Y-69323095D01*
X148740818Y-66323096D02*
X150329723Y-66323096D01*
X148488560Y-66254795D02*
G75*
G03*
X147785786Y-66903375I-252260J-431700D01*
G01*
X150329723Y-66323096D02*
G75*
G03*
X150581981Y-66254797I-3J500009D01*
G01*
X148740818Y-69323096D02*
G75*
G03*
X148488560Y-69391394I2J-500009D01*
G01*
X150581981Y-69391394D02*
G75*
G03*
X150329722Y-69323095I-252261J-431710D01*
G01*
X151235269Y-68525937D02*
G75*
G03*
X151284754Y-68742815I499990J-2D01*
G01*
X151284753Y-66903375D02*
G75*
G03*
X150581981Y-66254797I-450514J216878D01*
G01*
X147785789Y-68742816D02*
G75*
G03*
X148488559Y-69391392I450511J-216879D01*
G01*
X150581981Y-69391394D02*
G75*
G03*
X151284754Y-68742814I252259J431700D01*
G01*
X151284754Y-66903375D02*
G75*
G03*
X151235269Y-67120252I450505J-216876D01*
G01*
X148488559Y-66254796D02*
G75*
G03*
X148740817Y-66323095I252261J431711D01*
G01*
X147835289Y-67120253D02*
G75*
G03*
X147785786Y-66903375I-500019J-42D01*
G01*
X147785785Y-68742814D02*
G75*
G03*
X147835271Y-68525938I-450505J216879D01*
G01*
%TO.C,D9*%
X220720818Y-89331096D02*
X222309723Y-89331096D01*
X219815271Y-91533937D02*
X219815271Y-90128253D01*
X222309722Y-92331095D02*
X220720818Y-92331095D01*
X223215269Y-90128253D02*
X223215269Y-91533937D01*
X220468560Y-89262795D02*
G75*
G03*
X219765786Y-89911375I-252260J-431700D01*
G01*
X223215269Y-91533937D02*
G75*
G03*
X223264754Y-91750815I499990J-2D01*
G01*
X219765785Y-91750814D02*
G75*
G03*
X219815271Y-91533938I-450505J216879D01*
G01*
X222561981Y-92399394D02*
G75*
G03*
X222309722Y-92331095I-252261J-431710D01*
G01*
X223264753Y-89911375D02*
G75*
G03*
X222561981Y-89262797I-450514J216878D01*
G01*
X219765789Y-91750816D02*
G75*
G03*
X220468559Y-92399392I450511J-216879D01*
G01*
X220720818Y-92331096D02*
G75*
G03*
X220468560Y-92399394I2J-500009D01*
G01*
X222309723Y-89331096D02*
G75*
G03*
X222561981Y-89262797I-3J500009D01*
G01*
X220468559Y-89262796D02*
G75*
G03*
X220720817Y-89331095I252261J431711D01*
G01*
X219815289Y-90128253D02*
G75*
G03*
X219765786Y-89911375I-500019J-42D01*
G01*
X223264754Y-89911375D02*
G75*
G03*
X223215269Y-90128252I450505J-216876D01*
G01*
X222561981Y-92399394D02*
G75*
G03*
X223264754Y-91750814I252259J431700D01*
G01*
%TO.C,D17*%
X201835272Y-55025937D02*
X201835272Y-53620253D01*
X205235270Y-53620253D02*
X205235270Y-55025937D01*
X204329723Y-55823095D02*
X202740819Y-55823095D01*
X202740819Y-52823096D02*
X204329724Y-52823096D01*
X202488561Y-52754795D02*
G75*
G03*
X201785787Y-53403375I-252260J-431700D01*
G01*
X201835290Y-53620253D02*
G75*
G03*
X201785787Y-53403375I-500019J-42D01*
G01*
X202488560Y-52754796D02*
G75*
G03*
X202740818Y-52823095I252261J431711D01*
G01*
X201785790Y-55242816D02*
G75*
G03*
X202488560Y-55891392I450511J-216879D01*
G01*
X205284755Y-53403375D02*
G75*
G03*
X205235270Y-53620252I450505J-216876D01*
G01*
X204581982Y-55891394D02*
G75*
G03*
X205284755Y-55242814I252259J431700D01*
G01*
X204581982Y-55891394D02*
G75*
G03*
X204329723Y-55823095I-252261J-431710D01*
G01*
X202740819Y-55823096D02*
G75*
G03*
X202488561Y-55891394I2J-500009D01*
G01*
X205235270Y-55025937D02*
G75*
G03*
X205284755Y-55242815I499990J-2D01*
G01*
X204329724Y-52823096D02*
G75*
G03*
X204581982Y-52754797I-3J500009D01*
G01*
X205284754Y-53403375D02*
G75*
G03*
X204581982Y-52754797I-450514J216878D01*
G01*
X201785786Y-55242814D02*
G75*
G03*
X201835272Y-55025938I-450505J216879D01*
G01*
%TO.C,D18*%
X244219928Y-117780510D02*
X243625860Y-119054492D01*
X240544416Y-117617591D02*
X241138483Y-116343609D01*
X242296081Y-116003840D02*
X243736118Y-116675340D01*
X242468262Y-119394262D02*
X241028226Y-118722762D01*
X241028226Y-118722761D02*
G75*
G03*
X240770739Y-118678053I-211307J-453156D01*
G01*
X240407912Y-117793238D02*
G75*
G03*
X240770738Y-118678051I316645J-386953D01*
G01*
X242668022Y-119562771D02*
G75*
G03*
X243579053Y-119271963I411069J284644D01*
G01*
X244356433Y-117604865D02*
G75*
G03*
X243993605Y-116720049I-316648J386954D01*
G01*
X242668022Y-119562771D02*
G75*
G03*
X242468262Y-119394262I-411074J-284652D01*
G01*
X242096322Y-115835329D02*
G75*
G03*
X242296080Y-116003838I411074J284652D01*
G01*
X241138499Y-116343616D02*
G75*
G03*
X241185291Y-116126137I-453188J211279D01*
G01*
X240407911Y-117793238D02*
G75*
G03*
X240544415Y-117617592I-316635J386941D01*
G01*
X242096322Y-115835329D02*
G75*
G03*
X241185291Y-116126137I-411069J-284644D01*
G01*
X244356433Y-117604864D02*
G75*
G03*
X244219928Y-117780509I316641J-386949D01*
G01*
X243625860Y-119054492D02*
G75*
G03*
X243579052Y-119271964I453144J-211307D01*
G01*
X243736118Y-116675340D02*
G75*
G03*
X243993605Y-116720049I211308J453155D01*
G01*
%TO.C,D4*%
X147835271Y-85575937D02*
X147835271Y-84170253D01*
X150329722Y-86373095D02*
X148740818Y-86373095D01*
X148740818Y-83373096D02*
X150329723Y-83373096D01*
X151235269Y-84170253D02*
X151235269Y-85575937D01*
X150581981Y-86441394D02*
G75*
G03*
X150329722Y-86373095I-252261J-431710D01*
G01*
X148488559Y-83304796D02*
G75*
G03*
X148740817Y-83373095I252261J431711D01*
G01*
X150581981Y-86441394D02*
G75*
G03*
X151284754Y-85792814I252259J431700D01*
G01*
X151284754Y-83953375D02*
G75*
G03*
X151235269Y-84170252I450505J-216876D01*
G01*
X148488560Y-83304795D02*
G75*
G03*
X147785786Y-83953375I-252260J-431700D01*
G01*
X151284753Y-83953375D02*
G75*
G03*
X150581981Y-83304797I-450514J216878D01*
G01*
X148740818Y-86373096D02*
G75*
G03*
X148488560Y-86441394I2J-500009D01*
G01*
X147785789Y-85792816D02*
G75*
G03*
X148488559Y-86441392I450511J-216879D01*
G01*
X150329723Y-83373096D02*
G75*
G03*
X150581981Y-83304797I-3J500009D01*
G01*
X147835289Y-84170253D02*
G75*
G03*
X147785786Y-83953375I-500019J-42D01*
G01*
X147785785Y-85792814D02*
G75*
G03*
X147835271Y-85575938I-450505J216879D01*
G01*
X151235269Y-85575937D02*
G75*
G03*
X151284754Y-85792815I499990J-2D01*
G01*
%TO.C,D3*%
X220740817Y-55323096D02*
X222329722Y-55323096D01*
X223235268Y-56120253D02*
X223235268Y-57525937D01*
X222329721Y-58323095D02*
X220740817Y-58323095D01*
X219835270Y-57525937D02*
X219835270Y-56120253D01*
X219835288Y-56120253D02*
G75*
G03*
X219785785Y-55903375I-500019J-42D01*
G01*
X219785788Y-57742816D02*
G75*
G03*
X220488558Y-58391392I450511J-216879D01*
G01*
X220488558Y-55254796D02*
G75*
G03*
X220740816Y-55323095I252261J431711D01*
G01*
X222581980Y-58391394D02*
G75*
G03*
X222329721Y-58323095I-252261J-431710D01*
G01*
X222329722Y-55323096D02*
G75*
G03*
X222581980Y-55254797I-3J500009D01*
G01*
X223235268Y-57525937D02*
G75*
G03*
X223284753Y-57742815I499990J-2D01*
G01*
X220488559Y-55254795D02*
G75*
G03*
X219785785Y-55903375I-252260J-431700D01*
G01*
X223284752Y-55903375D02*
G75*
G03*
X222581980Y-55254797I-450514J216878D01*
G01*
X222581980Y-58391394D02*
G75*
G03*
X223284753Y-57742814I252259J431700D01*
G01*
X223284753Y-55903375D02*
G75*
G03*
X223235268Y-56120252I450505J-216876D01*
G01*
X219785784Y-57742814D02*
G75*
G03*
X219835270Y-57525938I-450505J216879D01*
G01*
X220740817Y-58323096D02*
G75*
G03*
X220488559Y-58391394I2J-500009D01*
G01*
%TO.C,D7*%
X148740819Y-100323096D02*
X150329724Y-100323096D01*
X151235270Y-101120253D02*
X151235270Y-102525937D01*
X150329723Y-103323095D02*
X148740819Y-103323095D01*
X147835272Y-102525937D02*
X147835272Y-101120253D01*
X150581982Y-103391394D02*
G75*
G03*
X151284755Y-102742814I252259J431700D01*
G01*
X148740819Y-103323096D02*
G75*
G03*
X148488561Y-103391394I2J-500009D01*
G01*
X147835290Y-101120253D02*
G75*
G03*
X147785787Y-100903375I-500019J-42D01*
G01*
X151284755Y-100903375D02*
G75*
G03*
X151235270Y-101120252I450505J-216876D01*
G01*
X147785790Y-102742816D02*
G75*
G03*
X148488560Y-103391392I450511J-216879D01*
G01*
X148488560Y-100254796D02*
G75*
G03*
X148740818Y-100323095I252261J431711D01*
G01*
X148488561Y-100254795D02*
G75*
G03*
X147785787Y-100903375I-252260J-431700D01*
G01*
X151284754Y-100903375D02*
G75*
G03*
X150581982Y-100254797I-450514J216878D01*
G01*
X147785786Y-102742814D02*
G75*
G03*
X147835272Y-102525938I-450505J216879D01*
G01*
X150581982Y-103391394D02*
G75*
G03*
X150329723Y-103323095I-252261J-431710D01*
G01*
X151235270Y-102525937D02*
G75*
G03*
X151284755Y-102742815I499990J-2D01*
G01*
X150329724Y-100323096D02*
G75*
G03*
X150581982Y-100254797I-3J500009D01*
G01*
%TO.C,D5*%
X183835271Y-66641937D02*
X183835271Y-65236253D01*
X187235269Y-65236253D02*
X187235269Y-66641937D01*
X186329722Y-67439095D02*
X184740818Y-67439095D01*
X184740818Y-64439096D02*
X186329723Y-64439096D01*
X183835289Y-65236253D02*
G75*
G03*
X183785786Y-65019375I-500019J-42D01*
G01*
X186329723Y-64439096D02*
G75*
G03*
X186581981Y-64370797I-3J500009D01*
G01*
X184488559Y-64370796D02*
G75*
G03*
X184740817Y-64439095I252261J431711D01*
G01*
X186581981Y-67507394D02*
G75*
G03*
X187284754Y-66858814I252259J431700D01*
G01*
X183785785Y-66858814D02*
G75*
G03*
X183835271Y-66641938I-450505J216879D01*
G01*
X184740818Y-67439096D02*
G75*
G03*
X184488560Y-67507394I2J-500009D01*
G01*
X186581981Y-67507394D02*
G75*
G03*
X186329722Y-67439095I-252261J-431710D01*
G01*
X187284754Y-65019375D02*
G75*
G03*
X187235269Y-65236252I450505J-216876D01*
G01*
X187235269Y-66641937D02*
G75*
G03*
X187284754Y-66858815I499990J-2D01*
G01*
X183785789Y-66858816D02*
G75*
G03*
X184488559Y-67507392I450511J-216879D01*
G01*
X187284753Y-65019375D02*
G75*
G03*
X186581981Y-64370797I-450514J216878D01*
G01*
X184488560Y-64370795D02*
G75*
G03*
X183785786Y-65019375I-252260J-431700D01*
G01*
%TO.C,D6*%
X223215269Y-73110254D02*
X223215269Y-74515938D01*
X222309722Y-75313096D02*
X220720818Y-75313096D01*
X219815271Y-74515938D02*
X219815271Y-73110254D01*
X220720818Y-72313097D02*
X222309723Y-72313097D01*
X222561981Y-75381395D02*
G75*
G03*
X222309722Y-75313096I-252261J-431710D01*
G01*
X219765789Y-74732817D02*
G75*
G03*
X220468559Y-75381393I450511J-216879D01*
G01*
X223264754Y-72893376D02*
G75*
G03*
X223215269Y-73110253I450505J-216876D01*
G01*
X220720818Y-75313097D02*
G75*
G03*
X220468560Y-75381395I2J-500009D01*
G01*
X223264753Y-72893376D02*
G75*
G03*
X222561981Y-72244798I-450514J216878D01*
G01*
X223215269Y-74515938D02*
G75*
G03*
X223264754Y-74732816I499990J-2D01*
G01*
X219815289Y-73110254D02*
G75*
G03*
X219765786Y-72893376I-500019J-42D01*
G01*
X220468559Y-72244797D02*
G75*
G03*
X220720817Y-72313096I252261J431711D01*
G01*
X219765785Y-74732815D02*
G75*
G03*
X219815271Y-74515939I-450505J216879D01*
G01*
X222309723Y-72313097D02*
G75*
G03*
X222561981Y-72244798I-3J500009D01*
G01*
X220468560Y-72244796D02*
G75*
G03*
X219765786Y-72893376I-252260J-431700D01*
G01*
X222561981Y-75381395D02*
G75*
G03*
X223264754Y-74732815I252259J431700D01*
G01*
%TO.C,D13*%
X169235270Y-72094253D02*
X169235270Y-73499937D01*
X168329723Y-74297095D02*
X166740819Y-74297095D01*
X165835272Y-73499937D02*
X165835272Y-72094253D01*
X166740819Y-71297096D02*
X168329724Y-71297096D01*
X169284754Y-71877375D02*
G75*
G03*
X168581982Y-71228797I-450514J216878D01*
G01*
X168581982Y-74365394D02*
G75*
G03*
X169284755Y-73716814I252259J431700D01*
G01*
X168329724Y-71297096D02*
G75*
G03*
X168581982Y-71228797I-3J500009D01*
G01*
X165785786Y-73716814D02*
G75*
G03*
X165835272Y-73499938I-450505J216879D01*
G01*
X166488561Y-71228795D02*
G75*
G03*
X165785787Y-71877375I-252260J-431700D01*
G01*
X169235270Y-73499937D02*
G75*
G03*
X169284755Y-73716815I499990J-2D01*
G01*
X168581982Y-74365394D02*
G75*
G03*
X168329723Y-74297095I-252261J-431710D01*
G01*
X165785790Y-73716816D02*
G75*
G03*
X166488560Y-74365392I450511J-216879D01*
G01*
X166488560Y-71228796D02*
G75*
G03*
X166740818Y-71297095I252261J431711D01*
G01*
X169284755Y-71877375D02*
G75*
G03*
X169235270Y-72094252I450505J-216876D01*
G01*
X165835290Y-72094253D02*
G75*
G03*
X165785787Y-71877375I-500019J-42D01*
G01*
X166740819Y-74297096D02*
G75*
G03*
X166488561Y-74365394I2J-500009D01*
G01*
%TO.C,D34*%
X166740818Y-57323095D02*
X168329722Y-57323095D01*
X168329722Y-54323096D02*
X166740817Y-54323096D01*
X165835271Y-55120253D02*
X165835271Y-56525937D01*
X169235269Y-56525937D02*
X169235269Y-55120253D01*
X169284755Y-54903376D02*
G75*
G03*
X169235269Y-55120253I450505J-216879D01*
G01*
X169235251Y-56525938D02*
G75*
G03*
X169284754Y-56742815I500019J43D01*
G01*
X168329723Y-54323094D02*
G75*
G03*
X168581981Y-54254796I7J499979D01*
G01*
X169284753Y-54903375D02*
G75*
G03*
X168581981Y-54254796I-450513J216880D01*
G01*
X165785786Y-56742815D02*
G75*
G03*
X165835271Y-56525937I-450505J216876D01*
G01*
X166488559Y-54254798D02*
G75*
G03*
X165785786Y-54903375I-252258J-431700D01*
G01*
X166488559Y-54254797D02*
G75*
G03*
X166740817Y-54323096I252261J431710D01*
G01*
X165835271Y-55120252D02*
G75*
G03*
X165785786Y-54903375I-499990J1D01*
G01*
X168581980Y-57391394D02*
G75*
G03*
X168329722Y-57323095I-252260J-431711D01*
G01*
X168581981Y-57391392D02*
G75*
G03*
X169284754Y-56742815I252258J431700D01*
G01*
X165785785Y-56742813D02*
G75*
G03*
X166488559Y-57391394I450516J-216879D01*
G01*
X166740818Y-57323095D02*
G75*
G03*
X166488559Y-57391394I-6J-499982D01*
G01*
%TO.C,D26*%
X187235268Y-83659937D02*
X187235268Y-82254253D01*
X183835270Y-82254253D02*
X183835270Y-83659937D01*
X184740817Y-84457095D02*
X186329721Y-84457095D01*
X186329721Y-81457096D02*
X184740816Y-81457096D01*
X186581980Y-84525392D02*
G75*
G03*
X187284753Y-83876815I252258J431700D01*
G01*
X187284752Y-82037375D02*
G75*
G03*
X186581980Y-81388796I-450513J216880D01*
G01*
X183785785Y-83876815D02*
G75*
G03*
X183835270Y-83659937I-450505J216876D01*
G01*
X184488558Y-81388797D02*
G75*
G03*
X184740816Y-81457096I252261J431710D01*
G01*
X183785784Y-83876813D02*
G75*
G03*
X184488558Y-84525394I450516J-216879D01*
G01*
X187284754Y-82037376D02*
G75*
G03*
X187235268Y-82254253I450505J-216879D01*
G01*
X184488558Y-81388798D02*
G75*
G03*
X183785785Y-82037375I-252258J-431700D01*
G01*
X186581979Y-84525394D02*
G75*
G03*
X186329721Y-84457095I-252260J-431711D01*
G01*
X183835270Y-82254252D02*
G75*
G03*
X183785785Y-82037375I-499990J1D01*
G01*
X186329722Y-81457094D02*
G75*
G03*
X186581980Y-81388796I7J499979D01*
G01*
X184740817Y-84457095D02*
G75*
G03*
X184488558Y-84525394I-6J-499982D01*
G01*
X187235250Y-83659938D02*
G75*
G03*
X187284753Y-83876815I500019J43D01*
G01*
%TO.C,D31*%
X165835272Y-72094253D02*
X165835272Y-73499937D01*
X169235270Y-73499937D02*
X169235270Y-72094253D01*
X166740819Y-74297095D02*
X168329723Y-74297095D01*
X168329723Y-71297096D02*
X166740818Y-71297096D01*
X169284756Y-71877376D02*
G75*
G03*
X169235270Y-72094253I450505J-216879D01*
G01*
X168329724Y-71297094D02*
G75*
G03*
X168581982Y-71228796I7J499979D01*
G01*
X165785786Y-73716813D02*
G75*
G03*
X166488560Y-74365394I450516J-216879D01*
G01*
X166740819Y-74297095D02*
G75*
G03*
X166488560Y-74365394I-6J-499982D01*
G01*
X166488560Y-71228798D02*
G75*
G03*
X165785787Y-71877375I-252258J-431700D01*
G01*
X168581982Y-74365392D02*
G75*
G03*
X169284755Y-73716815I252258J431700D01*
G01*
X166488560Y-71228797D02*
G75*
G03*
X166740818Y-71297096I252261J431710D01*
G01*
X165835272Y-72094252D02*
G75*
G03*
X165785787Y-71877375I-499990J1D01*
G01*
X169235252Y-73499938D02*
G75*
G03*
X169284755Y-73716815I500019J43D01*
G01*
X165785787Y-73716815D02*
G75*
G03*
X165835272Y-73499937I-450505J216876D01*
G01*
X169284754Y-71877375D02*
G75*
G03*
X168581982Y-71228796I-450513J216880D01*
G01*
X168581981Y-74365394D02*
G75*
G03*
X168329723Y-74297095I-252260J-431711D01*
G01*
%TO.C,D28*%
X169235269Y-90517937D02*
X169235269Y-89112253D01*
X168329722Y-88315096D02*
X166740817Y-88315096D01*
X166740818Y-91315095D02*
X168329722Y-91315095D01*
X165835271Y-89112253D02*
X165835271Y-90517937D01*
X169284753Y-88895375D02*
G75*
G03*
X168581981Y-88246796I-450513J216880D01*
G01*
X168581980Y-91383394D02*
G75*
G03*
X168329722Y-91315095I-252260J-431711D01*
G01*
X165785785Y-90734813D02*
G75*
G03*
X166488559Y-91383394I450516J-216879D01*
G01*
X168329723Y-88315094D02*
G75*
G03*
X168581981Y-88246796I7J499979D01*
G01*
X168581981Y-91383392D02*
G75*
G03*
X169284754Y-90734815I252258J431700D01*
G01*
X166488559Y-88246798D02*
G75*
G03*
X165785786Y-88895375I-252258J-431700D01*
G01*
X169235251Y-90517938D02*
G75*
G03*
X169284754Y-90734815I500019J43D01*
G01*
X169284755Y-88895376D02*
G75*
G03*
X169235269Y-89112253I450505J-216879D01*
G01*
X166740818Y-91315095D02*
G75*
G03*
X166488559Y-91383394I-6J-499982D01*
G01*
X165785786Y-90734815D02*
G75*
G03*
X165835271Y-90517937I-450505J216876D01*
G01*
X165835271Y-89112252D02*
G75*
G03*
X165785786Y-88895375I-499990J1D01*
G01*
X166488559Y-88246797D02*
G75*
G03*
X166740817Y-88315096I252261J431710D01*
G01*
%TO.C,D32*%
X202740818Y-72773096D02*
X204329722Y-72773096D01*
X205235269Y-71975938D02*
X205235269Y-70570254D01*
X201835271Y-70570254D02*
X201835271Y-71975938D01*
X204329722Y-69773097D02*
X202740817Y-69773097D01*
X201785786Y-72192816D02*
G75*
G03*
X201835271Y-71975938I-450505J216876D01*
G01*
X205235251Y-71975939D02*
G75*
G03*
X205284754Y-72192816I500019J43D01*
G01*
X202740818Y-72773096D02*
G75*
G03*
X202488559Y-72841395I-6J-499982D01*
G01*
X205284753Y-70353376D02*
G75*
G03*
X204581981Y-69704797I-450513J216880D01*
G01*
X204329723Y-69773095D02*
G75*
G03*
X204581981Y-69704797I7J499979D01*
G01*
X204581981Y-72841393D02*
G75*
G03*
X205284754Y-72192816I252258J431700D01*
G01*
X201785785Y-72192814D02*
G75*
G03*
X202488559Y-72841395I450516J-216879D01*
G01*
X201835271Y-70570253D02*
G75*
G03*
X201785786Y-70353376I-499990J1D01*
G01*
X202488559Y-69704798D02*
G75*
G03*
X202740817Y-69773097I252261J431710D01*
G01*
X204581980Y-72841395D02*
G75*
G03*
X204329722Y-72773096I-252260J-431711D01*
G01*
X205284755Y-70353377D02*
G75*
G03*
X205235269Y-70570254I450505J-216879D01*
G01*
X202488559Y-69704799D02*
G75*
G03*
X201785786Y-70353376I-252258J-431700D01*
G01*
%TO.C,D21*%
X223235268Y-57525937D02*
X223235268Y-56120253D01*
X219835270Y-56120253D02*
X219835270Y-57525937D01*
X220740817Y-58323095D02*
X222329721Y-58323095D01*
X222329721Y-55323096D02*
X220740816Y-55323096D01*
X219785784Y-57742813D02*
G75*
G03*
X220488558Y-58391394I450516J-216879D01*
G01*
X223235250Y-57525938D02*
G75*
G03*
X223284753Y-57742815I500019J43D01*
G01*
X220488558Y-55254797D02*
G75*
G03*
X220740816Y-55323096I252261J431710D01*
G01*
X223284754Y-55903376D02*
G75*
G03*
X223235268Y-56120253I450505J-216879D01*
G01*
X222329722Y-55323094D02*
G75*
G03*
X222581980Y-55254796I7J499979D01*
G01*
X223284752Y-55903375D02*
G75*
G03*
X222581980Y-55254796I-450513J216880D01*
G01*
X219835270Y-56120252D02*
G75*
G03*
X219785785Y-55903375I-499990J1D01*
G01*
X219785785Y-57742815D02*
G75*
G03*
X219835270Y-57525937I-450505J216876D01*
G01*
X220740817Y-58323095D02*
G75*
G03*
X220488558Y-58391394I-6J-499982D01*
G01*
X222581980Y-58391392D02*
G75*
G03*
X223284753Y-57742815I252258J431700D01*
G01*
X220488558Y-55254798D02*
G75*
G03*
X219785785Y-55903375I-252258J-431700D01*
G01*
X222581979Y-58391394D02*
G75*
G03*
X222329721Y-58323095I-252260J-431711D01*
G01*
%TO.C,D19*%
X148740818Y-69323095D02*
X150329722Y-69323095D01*
X147835271Y-67120253D02*
X147835271Y-68525937D01*
X151235269Y-68525937D02*
X151235269Y-67120253D01*
X150329722Y-66323096D02*
X148740817Y-66323096D01*
X150581981Y-69391392D02*
G75*
G03*
X151284754Y-68742815I252258J431700D01*
G01*
X151284755Y-66903376D02*
G75*
G03*
X151235269Y-67120253I450505J-216879D01*
G01*
X151235251Y-68525938D02*
G75*
G03*
X151284754Y-68742815I500019J43D01*
G01*
X148488559Y-66254797D02*
G75*
G03*
X148740817Y-66323096I252261J431710D01*
G01*
X150329723Y-66323094D02*
G75*
G03*
X150581981Y-66254796I7J499979D01*
G01*
X147785786Y-68742815D02*
G75*
G03*
X147835271Y-68525937I-450505J216876D01*
G01*
X148488559Y-66254798D02*
G75*
G03*
X147785786Y-66903375I-252258J-431700D01*
G01*
X147835271Y-67120252D02*
G75*
G03*
X147785786Y-66903375I-499990J1D01*
G01*
X147785785Y-68742813D02*
G75*
G03*
X148488559Y-69391394I450516J-216879D01*
G01*
X151284753Y-66903375D02*
G75*
G03*
X150581981Y-66254796I-450513J216880D01*
G01*
X150581980Y-69391394D02*
G75*
G03*
X150329722Y-69323095I-252260J-431711D01*
G01*
X148740818Y-69323095D02*
G75*
G03*
X148488559Y-69391394I-6J-499982D01*
G01*
%TO.C,D23*%
X184740818Y-67439095D02*
X186329722Y-67439095D01*
X183835271Y-65236253D02*
X183835271Y-66641937D01*
X186329722Y-64439096D02*
X184740817Y-64439096D01*
X187235269Y-66641937D02*
X187235269Y-65236253D01*
X187284755Y-65019376D02*
G75*
G03*
X187235269Y-65236253I450505J-216879D01*
G01*
X186581981Y-67507392D02*
G75*
G03*
X187284754Y-66858815I252258J431700D01*
G01*
X187235251Y-66641938D02*
G75*
G03*
X187284754Y-66858815I500019J43D01*
G01*
X186329723Y-64439094D02*
G75*
G03*
X186581981Y-64370796I7J499979D01*
G01*
X186581980Y-67507394D02*
G75*
G03*
X186329722Y-67439095I-252260J-431711D01*
G01*
X187284753Y-65019375D02*
G75*
G03*
X186581981Y-64370796I-450513J216880D01*
G01*
X184488559Y-64370798D02*
G75*
G03*
X183785786Y-65019375I-252258J-431700D01*
G01*
X183835271Y-65236252D02*
G75*
G03*
X183785786Y-65019375I-499990J1D01*
G01*
X184488559Y-64370797D02*
G75*
G03*
X184740817Y-64439096I252261J431710D01*
G01*
X183785785Y-66858813D02*
G75*
G03*
X184488559Y-67507394I450516J-216879D01*
G01*
X184740818Y-67439095D02*
G75*
G03*
X184488559Y-67507394I-6J-499982D01*
G01*
X183785786Y-66858815D02*
G75*
G03*
X183835271Y-66641937I-450505J216876D01*
G01*
%TO.C,D22*%
X147835271Y-84170253D02*
X147835271Y-85575937D01*
X151235269Y-85575937D02*
X151235269Y-84170253D01*
X148740818Y-86373095D02*
X150329722Y-86373095D01*
X150329722Y-83373096D02*
X148740817Y-83373096D01*
X150329723Y-83373094D02*
G75*
G03*
X150581981Y-83304796I7J499979D01*
G01*
X150581980Y-86441394D02*
G75*
G03*
X150329722Y-86373095I-252260J-431711D01*
G01*
X148740818Y-86373095D02*
G75*
G03*
X148488559Y-86441394I-6J-499982D01*
G01*
X150581981Y-86441392D02*
G75*
G03*
X151284754Y-85792815I252258J431700D01*
G01*
X147785786Y-85792815D02*
G75*
G03*
X147835271Y-85575937I-450505J216876D01*
G01*
X147785785Y-85792813D02*
G75*
G03*
X148488559Y-86441394I450516J-216879D01*
G01*
X148488559Y-83304798D02*
G75*
G03*
X147785786Y-83953375I-252258J-431700D01*
G01*
X151284753Y-83953375D02*
G75*
G03*
X150581981Y-83304796I-450513J216880D01*
G01*
X151284755Y-83953376D02*
G75*
G03*
X151235269Y-84170253I450505J-216879D01*
G01*
X148488559Y-83304797D02*
G75*
G03*
X148740817Y-83373096I252261J431710D01*
G01*
X151235251Y-85575938D02*
G75*
G03*
X151284754Y-85792815I500019J43D01*
G01*
X147835271Y-84170252D02*
G75*
G03*
X147785786Y-83953375I-499990J1D01*
G01*
%TO.C,D35*%
X201835272Y-53620253D02*
X201835272Y-55025937D01*
X202740819Y-55823095D02*
X204329723Y-55823095D01*
X204329723Y-52823096D02*
X202740818Y-52823096D01*
X205235270Y-55025937D02*
X205235270Y-53620253D01*
X205284756Y-53403376D02*
G75*
G03*
X205235270Y-53620253I450505J-216879D01*
G01*
X202488560Y-52754797D02*
G75*
G03*
X202740818Y-52823096I252261J431710D01*
G01*
X201785787Y-55242815D02*
G75*
G03*
X201835272Y-55025937I-450505J216876D01*
G01*
X204581981Y-55891394D02*
G75*
G03*
X204329723Y-55823095I-252260J-431711D01*
G01*
X205235252Y-55025938D02*
G75*
G03*
X205284755Y-55242815I500019J43D01*
G01*
X204581982Y-55891392D02*
G75*
G03*
X205284755Y-55242815I252258J431700D01*
G01*
X201835272Y-53620252D02*
G75*
G03*
X201785787Y-53403375I-499990J1D01*
G01*
X205284754Y-53403375D02*
G75*
G03*
X204581982Y-52754796I-450513J216880D01*
G01*
X202740819Y-55823095D02*
G75*
G03*
X202488560Y-55891394I-6J-499982D01*
G01*
X204329724Y-52823094D02*
G75*
G03*
X204581982Y-52754796I7J499979D01*
G01*
X202488560Y-52754798D02*
G75*
G03*
X201785787Y-53403375I-252258J-431700D01*
G01*
X201785786Y-55242813D02*
G75*
G03*
X202488560Y-55891394I450516J-216879D01*
G01*
%TO.C,D25*%
X151235270Y-102525937D02*
X151235270Y-101120253D01*
X147835272Y-101120253D02*
X147835272Y-102525937D01*
X148740819Y-103323095D02*
X150329723Y-103323095D01*
X150329723Y-100323096D02*
X148740818Y-100323096D01*
X150581982Y-103391392D02*
G75*
G03*
X151284755Y-102742815I252258J431700D01*
G01*
X147835272Y-101120252D02*
G75*
G03*
X147785787Y-100903375I-499990J1D01*
G01*
X150581981Y-103391394D02*
G75*
G03*
X150329723Y-103323095I-252260J-431711D01*
G01*
X151284754Y-100903375D02*
G75*
G03*
X150581982Y-100254796I-450513J216880D01*
G01*
X151284756Y-100903376D02*
G75*
G03*
X151235270Y-101120253I450505J-216879D01*
G01*
X148488560Y-100254798D02*
G75*
G03*
X147785787Y-100903375I-252258J-431700D01*
G01*
X150329724Y-100323094D02*
G75*
G03*
X150581982Y-100254796I7J499979D01*
G01*
X148740819Y-103323095D02*
G75*
G03*
X148488560Y-103391394I-6J-499982D01*
G01*
X151235252Y-102525938D02*
G75*
G03*
X151284755Y-102742815I500019J43D01*
G01*
X147785787Y-102742815D02*
G75*
G03*
X147835272Y-102525937I-450505J216876D01*
G01*
X147785786Y-102742813D02*
G75*
G03*
X148488560Y-103391394I450516J-216879D01*
G01*
X148488560Y-100254797D02*
G75*
G03*
X148740818Y-100323096I252261J431710D01*
G01*
%TO.C,D24*%
X223215269Y-74515938D02*
X223215269Y-73110254D01*
X220720818Y-75313096D02*
X222309722Y-75313096D01*
X222309722Y-72313097D02*
X220720817Y-72313097D01*
X219815271Y-73110254D02*
X219815271Y-74515938D01*
X223215251Y-74515939D02*
G75*
G03*
X223264754Y-74732816I500019J43D01*
G01*
X219765786Y-74732816D02*
G75*
G03*
X219815271Y-74515938I-450505J216876D01*
G01*
X219815271Y-73110253D02*
G75*
G03*
X219765786Y-72893376I-499990J1D01*
G01*
X220468559Y-72244799D02*
G75*
G03*
X219765786Y-72893376I-252258J-431700D01*
G01*
X219765785Y-74732814D02*
G75*
G03*
X220468559Y-75381395I450516J-216879D01*
G01*
X220468559Y-72244798D02*
G75*
G03*
X220720817Y-72313097I252261J431710D01*
G01*
X223264753Y-72893376D02*
G75*
G03*
X222561981Y-72244797I-450513J216880D01*
G01*
X222561981Y-75381393D02*
G75*
G03*
X223264754Y-74732816I252258J431700D01*
G01*
X223264755Y-72893377D02*
G75*
G03*
X223215269Y-73110254I450505J-216879D01*
G01*
X222309723Y-72313095D02*
G75*
G03*
X222561981Y-72244797I7J499979D01*
G01*
X222561980Y-75381395D02*
G75*
G03*
X222309722Y-75313096I-252260J-431711D01*
G01*
X220720818Y-75313096D02*
G75*
G03*
X220468559Y-75381395I-6J-499982D01*
G01*
%TO.C,D30*%
X204660295Y-107990757D02*
X204782809Y-106590422D01*
X203950185Y-105717375D02*
X202367326Y-105578893D01*
X201395749Y-106294093D02*
X201273235Y-107694428D01*
X202105860Y-108567476D02*
X203688717Y-108705958D01*
X203934064Y-108795981D02*
G75*
G03*
X204690690Y-108211123I288923J408072D01*
G01*
X204851009Y-106378683D02*
G75*
G03*
X204782809Y-106590422I429888J-255318D01*
G01*
X201395748Y-106294092D02*
G75*
G03*
X201365354Y-106073727I-498086J43578D01*
G01*
X201205035Y-107906166D02*
G75*
G03*
X201848608Y-108613529I429900J-255318D01*
G01*
X201205036Y-107906167D02*
G75*
G03*
X201273235Y-107694428I-429888J255314D01*
G01*
X203934063Y-108795983D02*
G75*
G03*
X203688717Y-108705958I-288925J-408072D01*
G01*
X202105860Y-108567476D02*
G75*
G03*
X201848608Y-108613529I-43583J-498079D01*
G01*
X203950186Y-105717376D02*
G75*
G03*
X204207436Y-105671321I43575J498100D01*
G01*
X202121980Y-105488868D02*
G75*
G03*
X202367326Y-105578893I288927J408081D01*
G01*
X202121980Y-105488867D02*
G75*
G03*
X201365354Y-106073727I-288923J-408073D01*
G01*
X204851007Y-106378681D02*
G75*
G03*
X204207436Y-105671321I-429897J255318D01*
G01*
X204660277Y-107990756D02*
G75*
G03*
X204690690Y-108211123I498120J-43537D01*
G01*
%TO.C,D29*%
X205235269Y-88993938D02*
X205235269Y-87588254D01*
X201835271Y-87588254D02*
X201835271Y-88993938D01*
X204329722Y-86791097D02*
X202740817Y-86791097D01*
X202740818Y-89791096D02*
X204329722Y-89791096D01*
X204581981Y-89859393D02*
G75*
G03*
X205284754Y-89210816I252258J431700D01*
G01*
X201785785Y-89210814D02*
G75*
G03*
X202488559Y-89859395I450516J-216879D01*
G01*
X205284753Y-87371376D02*
G75*
G03*
X204581981Y-86722797I-450513J216880D01*
G01*
X205235251Y-88993939D02*
G75*
G03*
X205284754Y-89210816I500019J43D01*
G01*
X202488559Y-86722799D02*
G75*
G03*
X201785786Y-87371376I-252258J-431700D01*
G01*
X205284755Y-87371377D02*
G75*
G03*
X205235269Y-87588254I450505J-216879D01*
G01*
X204581980Y-89859395D02*
G75*
G03*
X204329722Y-89791096I-252260J-431711D01*
G01*
X201785786Y-89210816D02*
G75*
G03*
X201835271Y-88993938I-450505J216876D01*
G01*
X201835271Y-87588253D02*
G75*
G03*
X201785786Y-87371376I-499990J1D01*
G01*
X204329723Y-86791095D02*
G75*
G03*
X204581981Y-86722797I7J499979D01*
G01*
X202740818Y-89791096D02*
G75*
G03*
X202488559Y-89859395I-6J-499982D01*
G01*
X202488559Y-86722798D02*
G75*
G03*
X202740817Y-86791097I252261J431710D01*
G01*
%TO.C,D33*%
X221689907Y-109577305D02*
X221326089Y-110935092D01*
X224305681Y-109452922D02*
X222770916Y-109041683D01*
X224610235Y-111815076D02*
X224974053Y-110457290D01*
X221994460Y-111939460D02*
X223529224Y-112350699D01*
X221222157Y-111131770D02*
G75*
G03*
X221733120Y-111940143I379033J-326091D01*
G01*
X222544932Y-108910422D02*
G75*
G03*
X221698240Y-109355010I-355396J-351702D01*
G01*
X223755212Y-112481957D02*
G75*
G03*
X224601901Y-112037372I355394J351700D01*
G01*
X223755210Y-112481959D02*
G75*
G03*
X223529224Y-112350699I-355400J-351712D01*
G01*
X225077983Y-110260608D02*
G75*
G03*
X224567022Y-109452239I-379030J326090D01*
G01*
X221689907Y-109577304D02*
G75*
G03*
X221698240Y-109355010I-482983J129408D01*
G01*
X224305682Y-109452921D02*
G75*
G03*
X224567022Y-109452239I129411J482941D01*
G01*
X224610217Y-111815072D02*
G75*
G03*
X224601901Y-112037372I482993J-129373D01*
G01*
X222544932Y-108910422D02*
G75*
G03*
X222770916Y-109041683I355399J351709D01*
G01*
X221994460Y-111939461D02*
G75*
G03*
X221733120Y-111940143I-129410J-482943D01*
G01*
X225077986Y-110260611D02*
G75*
G03*
X224974053Y-110457290I379020J-326088D01*
G01*
X221222158Y-111131772D02*
G75*
G03*
X221326089Y-110935092I-379023J326085D01*
G01*
%TO.C,D20*%
X183835271Y-48120253D02*
X183835271Y-49525937D01*
X186329722Y-47323096D02*
X184740817Y-47323096D01*
X187235269Y-49525937D02*
X187235269Y-48120253D01*
X184740818Y-50323095D02*
X186329722Y-50323095D01*
X186581981Y-50391392D02*
G75*
G03*
X187284754Y-49742815I252258J431700D01*
G01*
X187284755Y-47903376D02*
G75*
G03*
X187235269Y-48120253I450505J-216879D01*
G01*
X184740818Y-50323095D02*
G75*
G03*
X184488559Y-50391394I-6J-499982D01*
G01*
X187284753Y-47903375D02*
G75*
G03*
X186581981Y-47254796I-450513J216880D01*
G01*
X183785785Y-49742813D02*
G75*
G03*
X184488559Y-50391394I450516J-216879D01*
G01*
X187235251Y-49525938D02*
G75*
G03*
X187284754Y-49742815I500019J43D01*
G01*
X184488559Y-47254798D02*
G75*
G03*
X183785786Y-47903375I-252258J-431700D01*
G01*
X186581980Y-50391394D02*
G75*
G03*
X186329722Y-50323095I-252260J-431711D01*
G01*
X183785786Y-49742815D02*
G75*
G03*
X183835271Y-49525937I-450505J216876D01*
G01*
X183835271Y-48120252D02*
G75*
G03*
X183785786Y-47903375I-499990J1D01*
G01*
X186329723Y-47323094D02*
G75*
G03*
X186581981Y-47254796I7J499979D01*
G01*
X184488559Y-47254797D02*
G75*
G03*
X184740817Y-47323096I252261J431710D01*
G01*
%TO.C,D36*%
X241028226Y-118722762D02*
X242468262Y-119394262D01*
X241138483Y-116343609D02*
X240544416Y-117617591D01*
X243625860Y-119054492D02*
X244219928Y-117780510D01*
X243736117Y-116675340D02*
X242296080Y-116003839D01*
X242096321Y-115835331D02*
G75*
G03*
X242296080Y-116003839I411074J284652D01*
G01*
X244356434Y-117604866D02*
G75*
G03*
X244219928Y-117780510I316639J-386951D01*
G01*
X242096321Y-115835331D02*
G75*
G03*
X241185291Y-116126137I-411068J-284645D01*
G01*
X241138483Y-116343608D02*
G75*
G03*
X241185291Y-116126137I-453144J211306D01*
G01*
X243625844Y-119054485D02*
G75*
G03*
X243579052Y-119271964I453189J-211279D01*
G01*
X240407910Y-117793234D02*
G75*
G03*
X240770738Y-118678053I316649J-386955D01*
G01*
X242668022Y-119562771D02*
G75*
G03*
X242468262Y-119394262I-411075J-284653D01*
G01*
X241028226Y-118722762D02*
G75*
G03*
X240770738Y-118678053I-211311J-453163D01*
G01*
X242668023Y-119562769D02*
G75*
G03*
X243579052Y-119271964I411068J284644D01*
G01*
X240407910Y-117793236D02*
G75*
G03*
X240544416Y-117617591I-316640J386948D01*
G01*
X244356432Y-117604863D02*
G75*
G03*
X243993606Y-116720048I-316646J386954D01*
G01*
X243736118Y-116675338D02*
G75*
G03*
X243993606Y-116720048I211307J453132D01*
G01*
%TO.C,D27*%
X220720818Y-92331095D02*
X222309722Y-92331095D01*
X219815271Y-90128253D02*
X219815271Y-91533937D01*
X223215269Y-91533937D02*
X223215269Y-90128253D01*
X222309722Y-89331096D02*
X220720817Y-89331096D01*
X223264755Y-89911376D02*
G75*
G03*
X223215269Y-90128253I450505J-216879D01*
G01*
X219765785Y-91750813D02*
G75*
G03*
X220468559Y-92399394I450516J-216879D01*
G01*
X223264753Y-89911375D02*
G75*
G03*
X222561981Y-89262796I-450513J216880D01*
G01*
X219765786Y-91750815D02*
G75*
G03*
X219815271Y-91533937I-450505J216876D01*
G01*
X222309723Y-89331094D02*
G75*
G03*
X222561981Y-89262796I7J499979D01*
G01*
X219815271Y-90128252D02*
G75*
G03*
X219765786Y-89911375I-499990J1D01*
G01*
X222561981Y-92399392D02*
G75*
G03*
X223264754Y-91750815I252258J431700D01*
G01*
X223215251Y-91533938D02*
G75*
G03*
X223264754Y-91750815I500019J43D01*
G01*
X220720818Y-92331095D02*
G75*
G03*
X220468559Y-92399394I-6J-499982D01*
G01*
X220468559Y-89262798D02*
G75*
G03*
X219765786Y-89911375I-252258J-431700D01*
G01*
X222561980Y-92399394D02*
G75*
G03*
X222309722Y-92331095I-252260J-431711D01*
G01*
X220468559Y-89262797D02*
G75*
G03*
X220720817Y-89331096I252261J431710D01*
G01*
%TD*%
M02*
