M48
; DRILL file {KiCad (6.0.4)} date Fri Oct 21 07:58:26 2022
; FORMAT={-:-/ absolute / inch / decimal}
; #@! TF.CreationDate,2022-10-21T07:58:26-04:00
; #@! TF.GenerationSoftware,Kicad,Pcbnew,(6.0.4)
; #@! TF.FileFunction,NonPlated,1,2,NPTH
FMAT,2
INCH
; #@! TA.AperFunction,NonPlated,NPTH,ComponentDrill
T1C0.0354
; #@! TA.AperFunction,NonPlated,NPTH,ComponentDrill
T2C0.0472
; #@! TA.AperFunction,NonPlated,NPTH,ComponentDrill
T3C0.0669
; #@! TA.AperFunction,NonPlated,NPTH,ComponentDrill
T4C0.1339
%
G90
G05
T1
X9.7708Y-4.1273
X9.7708Y-4.2454
T2
X7.9669Y-1.8211
T3
X5.6707Y-2.8702
X5.6707Y-3.5395
X5.6707Y-4.2088
X6.1038Y-2.8702
X6.1038Y-3.5395
X6.1038Y-4.2088
X6.3793Y-2.3978
X6.3793Y-3.736
X6.3793Y-3.066
X6.8124Y-2.3978
X6.8124Y-3.736
X6.8124Y-3.066
X7.088Y-3.466
X7.088Y-2.1222
X7.088Y-2.796
X7.5211Y-3.466
X7.5211Y-2.1222
X7.5211Y-2.796
X7.7601Y-4.3986
X7.7967Y-3.006
X7.7967Y-3.676
X7.7967Y-2.3387
X8.1915Y-4.4363
X8.2297Y-3.006
X8.2297Y-3.676
X8.2297Y-2.3387
X8.5045Y-3.106
X8.5045Y-3.776
X8.5053Y-2.4371
X8.5245Y-4.4953
X8.9376Y-3.106
X8.9376Y-3.776
X8.9384Y-2.4371
X8.9428Y-4.6073
X9.2618Y-4.7236
X9.6543Y-4.9066
T4
X5.8872Y-2.8702
X5.8872Y-3.5395
X5.8872Y-4.2088
X6.5959Y-2.3978
X6.5959Y-3.736
X6.5959Y-3.066
X7.3045Y-3.466
X7.3045Y-2.1222
X7.3045Y-2.796
X7.9758Y-4.4174
X8.0132Y-3.006
X8.0132Y-3.676
X8.0132Y-2.3387
X8.7211Y-3.106
X8.7211Y-3.776
X8.7219Y-2.4371
X8.7337Y-4.5513
X9.4581Y-4.8151
T0
M30
