%TF.GenerationSoftware,KiCad,Pcbnew,(6.0.4)*%
%TF.CreationDate,2022-10-21T08:01:46-04:00*%
%TF.ProjectId,half-swept,68616c66-2d73-4776-9570-742e6b696361,rev?*%
%TF.SameCoordinates,Original*%
%TF.FileFunction,Soldermask,Bot*%
%TF.FilePolarity,Negative*%
%FSLAX46Y46*%
G04 Gerber Fmt 4.6, Leading zero omitted, Abs format (unit mm)*
G04 Created by KiCad (PCBNEW (6.0.4)) date 2022-10-21 08:01:46*
%MOMM*%
%LPD*%
G01*
G04 APERTURE LIST*
G04 Aperture macros list*
%AMRoundRect*
0 Rectangle with rounded corners*
0 $1 Rounding radius*
0 $2 $3 $4 $5 $6 $7 $8 $9 X,Y pos of 4 corners*
0 Add a 4 corners polygon primitive as box body*
4,1,4,$2,$3,$4,$5,$6,$7,$8,$9,$2,$3,0*
0 Add four circle primitives for the rounded corners*
1,1,$1+$1,$2,$3*
1,1,$1+$1,$4,$5*
1,1,$1+$1,$6,$7*
1,1,$1+$1,$8,$9*
0 Add four rect primitives between the rounded corners*
20,1,$1+$1,$2,$3,$4,$5,0*
20,1,$1+$1,$4,$5,$6,$7,0*
20,1,$1+$1,$6,$7,$8,$9,0*
20,1,$1+$1,$8,$9,$2,$3,0*%
G04 Aperture macros list end*
%ADD10C,1.200000*%
%ADD11C,1.750000*%
%ADD12C,1.700000*%
%ADD13C,3.400000*%
%ADD14C,2.500000*%
%ADD15C,4.400000*%
%ADD16RoundRect,0.082000X-0.686681X0.389330X-0.743855X-0.264174X0.686681X-0.389330X0.743855X0.264174X0*%
%ADD17RoundRect,0.082000X-0.718000X0.328000X-0.718000X-0.328000X0.718000X-0.328000X0.718000X0.328000X0*%
%ADD18RoundRect,0.082000X-0.608642X0.502656X-0.778427X-0.130992X0.608642X-0.502656X0.778427X0.130992X0*%
%ADD19O,1.700000X1.200000*%
%ADD20C,1.752600*%
%ADD21C,0.900000*%
%ADD22C,1.397000*%
%ADD23RoundRect,0.082000X-0.512110X0.600709X-0.789348X0.006171X0.512110X-0.600709X0.789348X-0.006171X0*%
G04 APERTURE END LIST*
D10*
%TO.C,RSW1*%
X202360270Y-46255595D03*
D11*
X199860270Y-47465595D03*
X204860270Y-47465595D03*
%TD*%
D12*
%TO.C,SW2*%
X144035270Y-72903095D03*
D13*
X149535270Y-72903095D03*
D12*
X155035270Y-72903095D03*
D14*
X149535270Y-78803095D03*
X144535270Y-76703095D03*
%TD*%
D13*
%TO.C,SW3*%
X167535270Y-60903095D03*
D12*
X173035270Y-60903095D03*
X162035270Y-60903095D03*
D14*
X167535270Y-66803095D03*
X162535270Y-64703095D03*
%TD*%
D12*
%TO.C,SW4*%
X191035270Y-53903095D03*
X180035270Y-53903095D03*
D13*
X185535270Y-53903095D03*
D14*
X185535270Y-59803095D03*
X180535270Y-57703095D03*
%TD*%
D12*
%TO.C,SW5*%
X198035271Y-59403095D03*
X209035271Y-59403095D03*
D13*
X203535271Y-59403095D03*
D14*
X203535271Y-65303095D03*
X198535271Y-63203095D03*
%TD*%
D13*
%TO.C,SW6*%
X221535269Y-61903095D03*
D12*
X227035269Y-61903095D03*
X216035269Y-61903095D03*
D14*
X221535269Y-67803095D03*
X216535269Y-65703095D03*
%TD*%
D12*
%TO.C,SW8*%
X144035270Y-89903095D03*
X155035270Y-89903095D03*
D13*
X149535270Y-89903095D03*
D14*
X149535270Y-95803095D03*
X144535270Y-93703095D03*
%TD*%
D12*
%TO.C,SW9*%
X173035271Y-77877095D03*
X162035271Y-77877095D03*
D13*
X167535271Y-77877095D03*
D14*
X167535271Y-83777095D03*
X162535271Y-81677095D03*
%TD*%
D12*
%TO.C,SW10*%
X191035270Y-71019095D03*
D13*
X185535270Y-71019095D03*
D12*
X180035270Y-71019095D03*
D14*
X185535270Y-76919095D03*
X180535270Y-74819095D03*
%TD*%
D12*
%TO.C,SW11*%
X209035270Y-76353096D03*
D13*
X203535270Y-76353096D03*
D12*
X198035270Y-76353096D03*
D14*
X203535270Y-82253096D03*
X198535270Y-80153096D03*
%TD*%
D12*
%TO.C,SW12*%
X227015270Y-78893096D03*
D13*
X221515270Y-78893096D03*
D12*
X216015270Y-78893096D03*
D14*
X221515270Y-84793096D03*
X216515270Y-82693096D03*
%TD*%
D13*
%TO.C,SW14*%
X149535271Y-106903095D03*
D12*
X155035271Y-106903095D03*
X144035271Y-106903095D03*
D14*
X149535271Y-112803095D03*
X144535271Y-110703095D03*
%TD*%
D13*
%TO.C,SW15*%
X167535270Y-94895095D03*
D12*
X162035270Y-94895095D03*
X173035270Y-94895095D03*
D14*
X167535270Y-100795095D03*
X162535270Y-98695095D03*
%TD*%
D13*
%TO.C,SW16*%
X185535269Y-88037095D03*
D12*
X180035269Y-88037095D03*
X191035269Y-88037095D03*
D14*
X185535269Y-93937095D03*
X180535269Y-91837095D03*
%TD*%
D13*
%TO.C,SW17*%
X203535270Y-93371096D03*
D12*
X198035270Y-93371096D03*
X209035270Y-93371096D03*
D14*
X203535270Y-99271096D03*
X198535270Y-97171096D03*
%TD*%
D12*
%TO.C,SW18*%
X227015270Y-95911095D03*
X216015270Y-95911095D03*
D13*
X221515270Y-95911095D03*
D14*
X221515270Y-101811095D03*
X216515270Y-99711095D03*
%TD*%
D13*
%TO.C,SW20*%
X240235271Y-122303094D03*
D12*
X235250578Y-119978694D03*
X245219964Y-124627494D03*
D14*
X237741823Y-127650310D03*
X234097783Y-123633972D03*
%TD*%
D12*
%TO.C,SW21*%
X216522678Y-114179589D03*
D13*
X221835270Y-115603094D03*
D12*
X227147862Y-117026599D03*
D14*
X220308238Y-121302056D03*
X216022128Y-117979517D03*
%TD*%
D15*
%TO.C,REF\u002A\u002A*%
X195035270Y-88853095D03*
X175985270Y-69803095D03*
X214085270Y-69803095D03*
X195035270Y-50753095D03*
%TD*%
D16*
%TO.C,D12*%
X200503283Y-106168674D03*
X200372549Y-107662966D03*
X205552762Y-108116176D03*
X205683495Y-106621884D03*
%TD*%
D17*
%TO.C,D16*%
X164935270Y-55073095D03*
X164935270Y-56573095D03*
X170135270Y-56573095D03*
X170135270Y-55073095D03*
%TD*%
%TO.C,D8*%
X182935269Y-82207095D03*
X182935269Y-83707095D03*
X188135269Y-83707095D03*
X188135269Y-82207095D03*
%TD*%
%TO.C,D2*%
X182935270Y-48073095D03*
X182935270Y-49573095D03*
X188135270Y-49573095D03*
X188135270Y-48073095D03*
%TD*%
D18*
%TO.C,D15*%
X220832778Y-109298817D03*
X220444549Y-110747706D03*
X225467364Y-112093565D03*
X225855592Y-110644676D03*
%TD*%
D19*
%TO.C,JST_PH2_SMT*%
X239415657Y-103496925D03*
X239415657Y-105496925D03*
%TD*%
D17*
%TO.C,D11*%
X200935270Y-87541096D03*
X200935270Y-89041096D03*
X206135270Y-89041096D03*
X206135270Y-87541096D03*
%TD*%
D20*
%TO.C,U2*%
X232665269Y-61569846D03*
X232665269Y-64109846D03*
X232665269Y-66649846D03*
X232665269Y-69189846D03*
X232665269Y-71729846D03*
X232665269Y-74269846D03*
X232665269Y-76809846D03*
X232665269Y-79349846D03*
X232665269Y-81889846D03*
X232665269Y-84429846D03*
X232665269Y-86969846D03*
X232665269Y-89509846D03*
X247905269Y-89509846D03*
X247905269Y-86969846D03*
X247905269Y-84429846D03*
X247905269Y-81889846D03*
X247905269Y-79349846D03*
X247905269Y-76809846D03*
X247905269Y-74269846D03*
X247905269Y-71729846D03*
X247905269Y-69189846D03*
X247905269Y-66649846D03*
X247905269Y-64109846D03*
X247905269Y-61569846D03*
X235205269Y-84429846D03*
X237745269Y-84429846D03*
X240285269Y-84429846D03*
%TD*%
D21*
%TO.C,REF\u002A\u002A*%
X248177611Y-107833619D03*
X248177611Y-104833619D03*
%TD*%
D17*
%TO.C,D14*%
X200935270Y-70523096D03*
X200935270Y-72023096D03*
X206135270Y-72023096D03*
X206135270Y-70523096D03*
%TD*%
%TO.C,D10*%
X164935270Y-89065095D03*
X164935270Y-90565095D03*
X170135270Y-90565095D03*
X170135270Y-89065095D03*
%TD*%
%TO.C,D1*%
X146935270Y-67073095D03*
X146935270Y-68573095D03*
X152135270Y-68573095D03*
X152135270Y-67073095D03*
%TD*%
%TO.C,D9*%
X218915270Y-90081095D03*
X218915270Y-91581095D03*
X224115270Y-91581095D03*
X224115270Y-90081095D03*
%TD*%
%TO.C,D17*%
X200935271Y-53573095D03*
X200935271Y-55073095D03*
X206135271Y-55073095D03*
X206135271Y-53573095D03*
%TD*%
D22*
%TO.C,OL2*%
X236275271Y-96303095D03*
X238815271Y-96303095D03*
X241355271Y-96303095D03*
X243895271Y-96303095D03*
%TD*%
D23*
%TO.C,D18*%
X240342735Y-115920512D03*
X239708808Y-117279974D03*
X244421608Y-119477589D03*
X245055536Y-118118127D03*
%TD*%
D17*
%TO.C,D4*%
X146935270Y-84123095D03*
X146935270Y-85623095D03*
X152135270Y-85623095D03*
X152135270Y-84123095D03*
%TD*%
%TO.C,D3*%
X218935269Y-56073095D03*
X218935269Y-57573095D03*
X224135269Y-57573095D03*
X224135269Y-56073095D03*
%TD*%
%TO.C,D7*%
X146935271Y-101073095D03*
X146935271Y-102573095D03*
X152135271Y-102573095D03*
X152135271Y-101073095D03*
%TD*%
D22*
%TO.C,OL1*%
X236275270Y-94483095D03*
X238815270Y-94483095D03*
X241355270Y-94483095D03*
X243895270Y-94483095D03*
%TD*%
D12*
%TO.C,SW1*%
X197106200Y-111723737D03*
X208064342Y-112682451D03*
D13*
X202585271Y-112203094D03*
D14*
X202071052Y-118080643D03*
X197273106Y-115552855D03*
%TD*%
D17*
%TO.C,D5*%
X182935270Y-65189095D03*
X182935270Y-66689095D03*
X188135270Y-66689095D03*
X188135270Y-65189095D03*
%TD*%
%TO.C,D6*%
X218915270Y-73063096D03*
X218915270Y-74563096D03*
X224115270Y-74563096D03*
X224115270Y-73063096D03*
%TD*%
%TO.C,D13*%
X164935271Y-72047095D03*
X164935271Y-73547095D03*
X170135271Y-73547095D03*
X170135271Y-72047095D03*
%TD*%
M02*
