M48
; DRILL file {KiCad (6.0.4)} date Thu Oct 20 23:25:40 2022
; FORMAT={-:-/ absolute / inch / decimal}
; #@! TF.CreationDate,2022-10-20T23:25:40-04:00
; #@! TF.GenerationSoftware,Kicad,Pcbnew,(6.0.4)
; #@! TF.FileFunction,Plated,1,2,PTH
FMAT,2
INCH
; #@! TA.AperFunction,Plated,PTH,ViaDrill
T1C0.0157
; #@! TA.AperFunction,Plated,PTH,ComponentDrill
T2C0.0276
; #@! TA.AperFunction,Plated,PTH,ComponentDrill
T3C0.0320
; #@! TA.AperFunction,Plated,PTH,ComponentDrill
T4C0.0390
; #@! TA.AperFunction,Plated,PTH,ComponentDrill
T5C0.0430
; #@! TA.AperFunction,Plated,PTH,ComponentDrill
T6C0.0591
; #@! TA.AperFunction,Plated,PTH,ComponentDrill
T7C0.0866
%
G90
G05
T1
X5.6648Y-3.3092
X5.7081Y-3.256
X5.712Y-2.5474
X5.714Y-2.6399
X5.7396Y-2.756
X5.7849Y-2.5808
X5.7849Y-3.256
X5.7849Y-3.8702
X5.7868Y-4.1005
X5.8085Y-3.2226
X5.8183Y-3.9115
X5.9693Y-3.449
X5.9752Y-3.8427
X5.9896Y-2.2422
X5.9896Y-3.9115
X5.9896Y-2.5454
X5.9915Y-3.2206
X6.0737Y-3.3722
X6.113Y-3.447
X6.178Y-3.7719
X6.1819Y-3.2226
X6.2193Y-3.7915
X6.2193Y-3.1026
X6.3833Y-3.508
X6.4069Y-2.8407
X6.4069Y-2.9627
X6.4108Y-2.3111
X6.4108Y-2.1694
X6.4896Y-4.0395
X6.4915Y-2.9962
X6.4935Y-2.2816
X6.4935Y-2.1143
X6.4935Y-2.7757
X6.4935Y-3.6222
X6.4948Y-3.448
X6.5973Y-3.1636
X6.6583Y-3.2187
X6.7219Y-2.3387
X6.7258Y-4.1005
X6.7587Y-4.138
X6.7646Y-4.0041
X6.7986Y-3.6222
X6.8124Y-2.8958
X6.8223Y-2.9608
X6.838Y-3.5631
X6.8675Y-2.9608
X7.1071Y-1.9884
X7.1215Y-3.1458
X7.1215Y-3.2383
X7.1372Y-2.4765
X7.1372Y-2.5651
X7.2022Y-3.384
X7.2041Y-1.8387
X7.2061Y-2.508
X7.2061Y-3.1793
X7.3059Y-3.9569
X7.3807Y-2.9175
X7.3827Y-2.2541
X7.464Y-3.1497
X7.4699Y-2.4785
X7.4758Y-1.9509
X7.4856Y-2.6261
X7.523Y-2.0356
X7.5402Y-3.9923
X7.5933Y-2.4431
X7.6819Y-1.7679
X7.7337Y-3.7462
X7.7337Y-4.1655
X7.7829Y-2.1123
X7.7829Y-2.2541
X7.7947Y-2.9332
X7.7967Y-2.7777
X7.8059Y-3.3171
X7.8079Y-4.0278
X7.836Y-3.3859
X7.8729Y-3.5612
X7.8844Y-4.2994
X7.8938Y-4.0939
X7.9108Y-2.2206
X7.9108Y-2.7186
X7.9108Y-2.8958
X7.9128Y-2.0513
X7.9128Y-3.3859
X7.9201Y-3.638
X7.9319Y-3.8368
X8.0703Y-2.006
X8.0894Y-3.1636
X8.1051Y-2.2935
X8.1372Y-2.2521
X8.1635Y-4.2033
X8.1996Y-2.1301
X8.2278Y-2.8367
X8.2435Y-3.5671
X8.277Y-2.8466
X8.2809Y-3.6064
X8.2882Y-2.1301
X8.3059Y-2.8919
X8.3217Y-2.4884
X8.3223Y-2.943
X8.3223Y-3.5848
X8.3846Y-4.6086
X8.3899Y-4.1895
X8.4108Y-3.6104
X8.4122Y-3.1163
X8.4152Y-2.5091
X8.4634Y-2.2659
X8.4661Y-4.3043
X8.489Y-3.5691
X8.4925Y-2.8554
X8.5211Y-2.1517
X8.5427Y-2.88
X8.5467Y-3.4509
X8.5467Y-3.5454
X8.5467Y-3.6084
X8.5801Y-2.7796
X8.5973Y-4.1041
X8.6187Y-2.8182
X8.6187Y-3.4911
X8.6195Y-2.1517
X8.6554Y-4.4519
X8.6589Y-2.7856
X8.7219Y-4.2339
X8.7961Y-2.5868
X8.8Y-3.8959
X8.8098Y-2.7501
X8.8103Y-3.2556
X8.8374Y-3.9549
X8.8433Y-2.6616
X8.8478Y-3.4489
X8.8833Y-2.7875
X8.901Y-2.9352
X8.903Y-2.2619
X8.9303Y-4.4909
X8.9378Y-3.4746
X8.9463Y-2.2068
X8.991Y-2.1813
X9.0028Y-4.0081
X9.0028Y-3.6852
X9.05Y-4.0435
X9.05Y-3.6852
X9.0737Y-4.4628
X9.0756Y-4.7482
X9.0874Y-3.7108
X9.0874Y-4.0829
X9.1608Y-2.0769
X9.2098Y-2.8744
X9.2597Y-3.5242
X9.277Y-3.8938
X9.313Y-3.4953
X9.3601Y-3.4755
X9.4024Y-3.8644
X9.4103Y-2.9234
X9.4398Y-2.2049
X9.46Y-3.4966
X9.4792Y-2.3939
X9.4981Y-4.493
X9.5166Y-2.3565
X9.552Y-2.32
X9.554Y-3.8644
X9.59Y-2.2915
X9.6032Y-3.9018
X9.6217Y-4.5506
X9.6234Y-2.258
X9.666Y-4.7903
X9.671Y-3.6606
X9.7292Y-4.8388
T2
X9.4258Y-4.0747
X9.4258Y-4.1534
T3
X9.3022Y-3.7198
X9.3022Y-3.7915
X9.4022Y-3.7198
X9.4022Y-3.7915
X9.5022Y-3.7198
X9.5022Y-3.7915
X9.6022Y-3.7198
X9.6022Y-3.7915
T4
X7.8685Y-1.8687
X8.0654Y-1.8687
T5
X9.16Y-2.424
X9.16Y-2.524
X9.16Y-2.624
X9.16Y-2.724
X9.16Y-2.824
X9.16Y-2.924
X9.16Y-3.024
X9.16Y-3.124
X9.16Y-3.224
X9.16Y-3.324
X9.16Y-3.424
X9.16Y-3.524
X9.26Y-3.324
X9.36Y-3.324
X9.46Y-3.324
X9.76Y-2.424
X9.76Y-2.524
X9.76Y-2.624
X9.76Y-2.724
X9.76Y-2.824
X9.76Y-2.924
X9.76Y-3.024
X9.76Y-3.124
X9.76Y-3.224
X9.76Y-3.324
X9.76Y-3.424
X9.76Y-3.524
T6
X5.6904Y-3.0198
X5.6904Y-3.6891
X5.6904Y-4.3584
X5.8872Y-3.1025
X5.8872Y-3.7718
X5.8872Y-4.4411
X6.0841Y-3.0198
X6.0841Y-3.6891
X6.0841Y-4.3584
X6.399Y-2.5474
X6.399Y-3.8856
X6.399Y-3.2156
X6.5959Y-2.63
X6.5959Y-3.9683
X6.5959Y-3.2983
X6.7927Y-2.5474
X6.7927Y-3.8856
X6.7927Y-3.2156
X7.1077Y-3.6156
X7.1077Y-2.2718
X7.1077Y-2.9456
X7.3045Y-3.6983
X7.3045Y-2.3545
X7.3045Y-3.0283
X7.5014Y-3.6156
X7.5014Y-2.2718
X7.5014Y-2.9456
X7.7667Y-4.5493
X7.8163Y-3.1556
X7.8163Y-3.8256
X7.8163Y-2.4883
X7.9556Y-4.6488
X8.0132Y-3.2383
X8.0132Y-3.9083
X8.0132Y-2.571
X8.1589Y-4.5836
X8.21Y-3.1556
X8.21Y-3.8256
X8.2101Y-2.4883
X8.5048Y-4.6449
X8.5242Y-3.2556
X8.5242Y-3.9256
X8.525Y-2.5867
X8.6736Y-4.7757
X8.7211Y-3.3383
X8.7211Y-4.0083
X8.7219Y-2.6694
X8.8851Y-4.7468
X8.9179Y-3.2556
X8.9179Y-3.9256
X8.9187Y-2.5867
X9.2164Y-4.8675
X9.3599Y-5.0256
X9.5733Y-5.0339
T7
X6.9286Y-2.7482
X7.6786Y-1.9982
X7.6786Y-3.4982
X8.4286Y-2.7482
T0
M30
