%TF.GenerationSoftware,KiCad,Pcbnew,(6.0.4)*%
%TF.CreationDate,2022-10-21T08:01:46-04:00*%
%TF.ProjectId,half-swept,68616c66-2d73-4776-9570-742e6b696361,rev?*%
%TF.SameCoordinates,Original*%
%TF.FileFunction,Legend,Top*%
%TF.FilePolarity,Positive*%
%FSLAX46Y46*%
G04 Gerber Fmt 4.6, Leading zero omitted, Abs format (unit mm)*
G04 Created by KiCad (PCBNEW (6.0.4)) date 2022-10-21 08:01:46*
%MOMM*%
%LPD*%
G01*
G04 APERTURE LIST*
%ADD10C,0.150000*%
%ADD11C,0.100000*%
%ADD12C,0.300000*%
%ADD13C,0.120000*%
%ADD14C,0.200000*%
%ADD15C,0.010000*%
%ADD16C,0.381000*%
%ADD17O,1.700000X1.200000*%
%ADD18C,1.752600*%
%ADD19C,1.397000*%
G04 APERTURE END LIST*
D10*
%TO.C,RSW1*%
X201145984Y-49597975D02*
X200812650Y-49121785D01*
X200574555Y-49597975D02*
X200574555Y-48597975D01*
X200955508Y-48597975D01*
X201050746Y-48645595D01*
X201098365Y-48693214D01*
X201145984Y-48788452D01*
X201145984Y-48931309D01*
X201098365Y-49026547D01*
X201050746Y-49074166D01*
X200955508Y-49121785D01*
X200574555Y-49121785D01*
X201526936Y-49550356D02*
X201669793Y-49597975D01*
X201907889Y-49597975D01*
X202003127Y-49550356D01*
X202050746Y-49502737D01*
X202098365Y-49407499D01*
X202098365Y-49312261D01*
X202050746Y-49217023D01*
X202003127Y-49169404D01*
X201907889Y-49121785D01*
X201717412Y-49074166D01*
X201622174Y-49026547D01*
X201574555Y-48978928D01*
X201526936Y-48883690D01*
X201526936Y-48788452D01*
X201574555Y-48693214D01*
X201622174Y-48645595D01*
X201717412Y-48597975D01*
X201955508Y-48597975D01*
X202098365Y-48645595D01*
X202431698Y-48597975D02*
X202669793Y-49597975D01*
X202860270Y-48883690D01*
X203050746Y-49597975D01*
X203288841Y-48597975D01*
X204193603Y-49597975D02*
X203622174Y-49597975D01*
X203907889Y-49597975D02*
X203907889Y-48597975D01*
X203812650Y-48740833D01*
X203717412Y-48836071D01*
X203622174Y-48883690D01*
D11*
%TO.C,REF\u002A\u002A*%
X194630484Y-79161095D02*
X194630484Y-78780142D01*
X194297150Y-79018237D02*
X195154293Y-79018237D01*
X195249531Y-78970618D01*
X195297150Y-78875380D01*
X195297150Y-78780142D01*
X195249531Y-78065856D02*
X195297150Y-78161095D01*
X195297150Y-78351571D01*
X195249531Y-78446809D01*
X195154293Y-78494428D01*
X194773341Y-78494428D01*
X194678103Y-78446809D01*
X194630484Y-78351571D01*
X194630484Y-78161095D01*
X194678103Y-78065856D01*
X194773341Y-78018237D01*
X194868579Y-78018237D01*
X194963817Y-78494428D01*
X194630484Y-77589666D02*
X195297150Y-77589666D01*
X194725722Y-77589666D02*
X194678103Y-77542047D01*
X194630484Y-77446809D01*
X194630484Y-77303952D01*
X194678103Y-77208714D01*
X194773341Y-77161095D01*
X195297150Y-77161095D01*
X194630484Y-76827761D02*
X194630484Y-76446809D01*
X194297150Y-76684904D02*
X195154293Y-76684904D01*
X195249531Y-76637285D01*
X195297150Y-76542047D01*
X195297150Y-76446809D01*
X195297150Y-76113475D02*
X194630484Y-76113475D01*
X194297150Y-76113475D02*
X194344770Y-76161095D01*
X194392389Y-76113475D01*
X194344770Y-76065856D01*
X194297150Y-76113475D01*
X194392389Y-76113475D01*
X194630484Y-75637285D02*
X195297150Y-75637285D01*
X194725722Y-75637285D02*
X194678103Y-75589666D01*
X194630484Y-75494428D01*
X194630484Y-75351571D01*
X194678103Y-75256333D01*
X194773341Y-75208714D01*
X195297150Y-75208714D01*
X194630484Y-74303952D02*
X195440008Y-74303952D01*
X195535246Y-74351571D01*
X195582865Y-74399190D01*
X195630484Y-74494428D01*
X195630484Y-74637285D01*
X195582865Y-74732523D01*
X195249531Y-74303952D02*
X195297150Y-74399190D01*
X195297150Y-74589666D01*
X195249531Y-74684904D01*
X195201912Y-74732523D01*
X195106674Y-74780142D01*
X194820960Y-74780142D01*
X194725722Y-74732523D01*
X194678103Y-74684904D01*
X194630484Y-74589666D01*
X194630484Y-74399190D01*
X194678103Y-74303952D01*
X194566984Y-65270595D02*
X195566984Y-65270595D01*
X194614603Y-65270595D02*
X194566984Y-65175356D01*
X194566984Y-64984880D01*
X194614603Y-64889642D01*
X194662222Y-64842023D01*
X194757460Y-64794404D01*
X195043174Y-64794404D01*
X195138412Y-64842023D01*
X195186031Y-64889642D01*
X195233650Y-64984880D01*
X195233650Y-65175356D01*
X195186031Y-65270595D01*
X194566984Y-63937261D02*
X195233650Y-63937261D01*
X194566984Y-64365833D02*
X195090793Y-64365833D01*
X195186031Y-64318214D01*
X195233650Y-64222975D01*
X195233650Y-64080118D01*
X195186031Y-63984880D01*
X195138412Y-63937261D01*
X195186031Y-63032499D02*
X195233650Y-63127737D01*
X195233650Y-63318214D01*
X195186031Y-63413452D01*
X195138412Y-63461071D01*
X195043174Y-63508690D01*
X194757460Y-63508690D01*
X194662222Y-63461071D01*
X194614603Y-63413452D01*
X194566984Y-63318214D01*
X194566984Y-63127737D01*
X194614603Y-63032499D01*
X195233650Y-62603928D02*
X194233650Y-62603928D01*
X194852698Y-62508690D02*
X195233650Y-62222975D01*
X194566984Y-62222975D02*
X194947936Y-62603928D01*
D10*
%TO.C,U2*%
X233948079Y-61131750D02*
X234024269Y-61131750D01*
X234100459Y-61169846D01*
X234138555Y-61207941D01*
X234176650Y-61284131D01*
X234214745Y-61436512D01*
X234214745Y-61626988D01*
X234176650Y-61779369D01*
X234138555Y-61855560D01*
X234100459Y-61893655D01*
X234024269Y-61931750D01*
X233948079Y-61931750D01*
X233871888Y-61893655D01*
X233833793Y-61855560D01*
X233795698Y-61779369D01*
X233757602Y-61626988D01*
X233757602Y-61436512D01*
X233795698Y-61284131D01*
X233833793Y-61207941D01*
X233871888Y-61169846D01*
X233948079Y-61131750D01*
X234709983Y-61131750D02*
X234786174Y-61131750D01*
X234862364Y-61169846D01*
X234900459Y-61207941D01*
X234938555Y-61284131D01*
X234976650Y-61436512D01*
X234976650Y-61626988D01*
X234938555Y-61779369D01*
X234900459Y-61855560D01*
X234862364Y-61893655D01*
X234786174Y-61931750D01*
X234709983Y-61931750D01*
X234633793Y-61893655D01*
X234595698Y-61855560D01*
X234557602Y-61779369D01*
X234519507Y-61626988D01*
X234519507Y-61436512D01*
X234557602Y-61284131D01*
X234595698Y-61207941D01*
X234633793Y-61169846D01*
X234709983Y-61131750D01*
X235662364Y-61131750D02*
X235509983Y-61131750D01*
X235433793Y-61169846D01*
X235395698Y-61207941D01*
X235319507Y-61322226D01*
X235281412Y-61474607D01*
X235281412Y-61779369D01*
X235319507Y-61855560D01*
X235357602Y-61893655D01*
X235433793Y-61931750D01*
X235586174Y-61931750D01*
X235662364Y-61893655D01*
X235700459Y-61855560D01*
X235738555Y-61779369D01*
X235738555Y-61588893D01*
X235700459Y-61512703D01*
X235662364Y-61474607D01*
X235586174Y-61436512D01*
X235433793Y-61436512D01*
X235357602Y-61474607D01*
X235319507Y-61512703D01*
X235281412Y-61588893D01*
X245289126Y-82251750D02*
X244831983Y-82251750D01*
X245060555Y-82251750D02*
X245060555Y-81451750D01*
X244984364Y-81566036D01*
X244908174Y-81642226D01*
X244831983Y-81680322D01*
X246051031Y-82251750D02*
X245593888Y-82251750D01*
X245822460Y-82251750D02*
X245822460Y-81451750D01*
X245746269Y-81566036D01*
X245670079Y-81642226D01*
X245593888Y-81680322D01*
X246317698Y-81451750D02*
X246812936Y-81451750D01*
X246546269Y-81756512D01*
X246660555Y-81756512D01*
X246736745Y-81794607D01*
X246774840Y-81832703D01*
X246812936Y-81908893D01*
X246812936Y-82099369D01*
X246774840Y-82175560D01*
X246736745Y-82213655D01*
X246660555Y-82251750D01*
X246431983Y-82251750D01*
X246355793Y-82213655D01*
X246317698Y-82175560D01*
X233948079Y-78911750D02*
X234024269Y-78911750D01*
X234100459Y-78949846D01*
X234138555Y-78987941D01*
X234176650Y-79064131D01*
X234214745Y-79216512D01*
X234214745Y-79406988D01*
X234176650Y-79559369D01*
X234138555Y-79635560D01*
X234100459Y-79673655D01*
X234024269Y-79711750D01*
X233948079Y-79711750D01*
X233871888Y-79673655D01*
X233833793Y-79635560D01*
X233795698Y-79559369D01*
X233757602Y-79406988D01*
X233757602Y-79216512D01*
X233795698Y-79064131D01*
X233833793Y-78987941D01*
X233871888Y-78949846D01*
X233948079Y-78911750D01*
X234519507Y-78987941D02*
X234557602Y-78949846D01*
X234633793Y-78911750D01*
X234824269Y-78911750D01*
X234900459Y-78949846D01*
X234938555Y-78987941D01*
X234976650Y-79064131D01*
X234976650Y-79140322D01*
X234938555Y-79254607D01*
X234481412Y-79711750D01*
X234976650Y-79711750D01*
X235662364Y-79178417D02*
X235662364Y-79711750D01*
X235471888Y-78873655D02*
X235281412Y-79445084D01*
X235776650Y-79445084D01*
X233948079Y-73901750D02*
X234024269Y-73901750D01*
X234100459Y-73939846D01*
X234138555Y-73977941D01*
X234176650Y-74054131D01*
X234214745Y-74206512D01*
X234214745Y-74396988D01*
X234176650Y-74549369D01*
X234138555Y-74625560D01*
X234100459Y-74663655D01*
X234024269Y-74701750D01*
X233948079Y-74701750D01*
X233871888Y-74663655D01*
X233833793Y-74625560D01*
X233795698Y-74549369D01*
X233757602Y-74396988D01*
X233757602Y-74206512D01*
X233795698Y-74054131D01*
X233833793Y-73977941D01*
X233871888Y-73939846D01*
X233948079Y-73901750D01*
X234519507Y-73977941D02*
X234557602Y-73939846D01*
X234633793Y-73901750D01*
X234824269Y-73901750D01*
X234900459Y-73939846D01*
X234938555Y-73977941D01*
X234976650Y-74054131D01*
X234976650Y-74130322D01*
X234938555Y-74244607D01*
X234481412Y-74701750D01*
X234976650Y-74701750D01*
X235471888Y-73901750D02*
X235548079Y-73901750D01*
X235624269Y-73939846D01*
X235662364Y-73977941D01*
X235700459Y-74054131D01*
X235738555Y-74206512D01*
X235738555Y-74396988D01*
X235700459Y-74549369D01*
X235662364Y-74625560D01*
X235624269Y-74663655D01*
X235548079Y-74701750D01*
X235471888Y-74701750D01*
X235395698Y-74663655D01*
X235357602Y-74625560D01*
X235319507Y-74549369D01*
X235281412Y-74396988D01*
X235281412Y-74206512D01*
X235319507Y-74054131D01*
X235357602Y-73977941D01*
X235395698Y-73939846D01*
X235471888Y-73901750D01*
X234214745Y-66249846D02*
X234138554Y-66211750D01*
X234024269Y-66211750D01*
X233909983Y-66249846D01*
X233833792Y-66326036D01*
X233795697Y-66402226D01*
X233757602Y-66554607D01*
X233757602Y-66668893D01*
X233795697Y-66821274D01*
X233833792Y-66897465D01*
X233909983Y-66973655D01*
X234024269Y-67011750D01*
X234100459Y-67011750D01*
X234214745Y-66973655D01*
X234252840Y-66935560D01*
X234252840Y-66668893D01*
X234100459Y-66668893D01*
X234595697Y-67011750D02*
X234595697Y-66211750D01*
X235052840Y-67011750D01*
X235052840Y-66211750D01*
X235433792Y-67011750D02*
X235433792Y-66211750D01*
X235624269Y-66211750D01*
X235738554Y-66249846D01*
X235814745Y-66326036D01*
X235852840Y-66402226D01*
X235890935Y-66554607D01*
X235890935Y-66668893D01*
X235852840Y-66821274D01*
X235814745Y-66897465D01*
X235738554Y-66973655D01*
X235624269Y-67011750D01*
X235433792Y-67011750D01*
X245289126Y-79711750D02*
X244831983Y-79711750D01*
X245060555Y-79711750D02*
X245060555Y-78911750D01*
X244984364Y-79026036D01*
X244908174Y-79102226D01*
X244831983Y-79140322D01*
X246051031Y-79711750D02*
X245593888Y-79711750D01*
X245822460Y-79711750D02*
X245822460Y-78911750D01*
X245746269Y-79026036D01*
X245670079Y-79102226D01*
X245593888Y-79140322D01*
X246774840Y-78911750D02*
X246393888Y-78911750D01*
X246355793Y-79292703D01*
X246393888Y-79254607D01*
X246470079Y-79216512D01*
X246660555Y-79216512D01*
X246736745Y-79254607D01*
X246774840Y-79292703D01*
X246812936Y-79368893D01*
X246812936Y-79559369D01*
X246774840Y-79635560D01*
X246736745Y-79673655D01*
X246660555Y-79711750D01*
X246470079Y-79711750D01*
X246393888Y-79673655D01*
X246355793Y-79635560D01*
X245435173Y-67011750D02*
X245168507Y-66630798D01*
X244978030Y-67011750D02*
X244978030Y-66211750D01*
X245282792Y-66211750D01*
X245358983Y-66249846D01*
X245397078Y-66287941D01*
X245435173Y-66364131D01*
X245435173Y-66478417D01*
X245397078Y-66554607D01*
X245358983Y-66592703D01*
X245282792Y-66630798D01*
X244978030Y-66630798D01*
X245739935Y-66973655D02*
X245854221Y-67011750D01*
X246044697Y-67011750D01*
X246120888Y-66973655D01*
X246158983Y-66935560D01*
X246197078Y-66859369D01*
X246197078Y-66783179D01*
X246158983Y-66706988D01*
X246120888Y-66668893D01*
X246044697Y-66630798D01*
X245892316Y-66592703D01*
X245816126Y-66554607D01*
X245778030Y-66516512D01*
X245739935Y-66440322D01*
X245739935Y-66364131D01*
X245778030Y-66287941D01*
X245816126Y-66249846D01*
X245892316Y-66211750D01*
X246082792Y-66211750D01*
X246197078Y-66249846D01*
X246425649Y-66211750D02*
X246882792Y-66211750D01*
X246654221Y-67011750D02*
X246654221Y-66211750D01*
D12*
X235503554Y-88680417D02*
X235503554Y-89680417D01*
X235503554Y-88823274D02*
X235574983Y-88751846D01*
X235717840Y-88680417D01*
X235932126Y-88680417D01*
X236074983Y-88751846D01*
X236146411Y-88894703D01*
X236146411Y-89680417D01*
X236860697Y-89680417D02*
X236860697Y-88680417D01*
X236860697Y-88180417D02*
X236789269Y-88251846D01*
X236860697Y-88323274D01*
X236932126Y-88251846D01*
X236860697Y-88180417D01*
X236860697Y-88323274D01*
X238217840Y-89608988D02*
X238074983Y-89680417D01*
X237789269Y-89680417D01*
X237646411Y-89608988D01*
X237574983Y-89537560D01*
X237503554Y-89394703D01*
X237503554Y-88966131D01*
X237574983Y-88823274D01*
X237646411Y-88751846D01*
X237789269Y-88680417D01*
X238074983Y-88680417D01*
X238217840Y-88751846D01*
X239432126Y-89608988D02*
X239289269Y-89680417D01*
X239003554Y-89680417D01*
X238860697Y-89608988D01*
X238789269Y-89466131D01*
X238789269Y-88894703D01*
X238860697Y-88751846D01*
X239003554Y-88680417D01*
X239289269Y-88680417D01*
X239432126Y-88751846D01*
X239503554Y-88894703D01*
X239503554Y-89037560D01*
X238789269Y-89180417D01*
X240146411Y-89537560D02*
X240217840Y-89608988D01*
X240146411Y-89680417D01*
X240074983Y-89608988D01*
X240146411Y-89537560D01*
X240146411Y-89680417D01*
X240146411Y-89108988D02*
X240074983Y-88251846D01*
X240146411Y-88180417D01*
X240217840Y-88251846D01*
X240146411Y-89108988D01*
X240146411Y-88180417D01*
X240860697Y-88680417D02*
X240860697Y-89680417D01*
X240860697Y-88823274D02*
X240932126Y-88751846D01*
X241074983Y-88680417D01*
X241289269Y-88680417D01*
X241432126Y-88751846D01*
X241503554Y-88894703D01*
X241503554Y-89680417D01*
X242860697Y-89680417D02*
X242860697Y-88894703D01*
X242789269Y-88751846D01*
X242646411Y-88680417D01*
X242360697Y-88680417D01*
X242217840Y-88751846D01*
X242860697Y-89608988D02*
X242717840Y-89680417D01*
X242360697Y-89680417D01*
X242217840Y-89608988D01*
X242146411Y-89466131D01*
X242146411Y-89323274D01*
X242217840Y-89180417D01*
X242360697Y-89108988D01*
X242717840Y-89108988D01*
X242860697Y-89037560D01*
X243574983Y-88680417D02*
X243574983Y-89680417D01*
X243574983Y-88823274D02*
X243646411Y-88751846D01*
X243789269Y-88680417D01*
X244003554Y-88680417D01*
X244146411Y-88751846D01*
X244217840Y-88894703D01*
X244217840Y-89680417D01*
X245146411Y-89680417D02*
X245003554Y-89608988D01*
X244932126Y-89537560D01*
X244860697Y-89394703D01*
X244860697Y-88966131D01*
X244932126Y-88823274D01*
X245003554Y-88751846D01*
X245146411Y-88680417D01*
X245360697Y-88680417D01*
X245503554Y-88751846D01*
X245574983Y-88823274D01*
X245646411Y-88966131D01*
X245646411Y-89394703D01*
X245574983Y-89537560D01*
X245503554Y-89608988D01*
X245360697Y-89680417D01*
X245146411Y-89680417D01*
D10*
X245206603Y-61931750D02*
X244939936Y-61550798D01*
X244749460Y-61931750D02*
X244749460Y-61131750D01*
X245054222Y-61131750D01*
X245130412Y-61169846D01*
X245168507Y-61207941D01*
X245206603Y-61284131D01*
X245206603Y-61398417D01*
X245168507Y-61474607D01*
X245130412Y-61512703D01*
X245054222Y-61550798D01*
X244749460Y-61550798D01*
X245511364Y-61703179D02*
X245892317Y-61703179D01*
X245435174Y-61931750D02*
X245701841Y-61131750D01*
X245968507Y-61931750D01*
X246158984Y-61131750D02*
X246349460Y-61931750D01*
X246501841Y-61360322D01*
X246654222Y-61931750D01*
X246844698Y-61131750D01*
X244755793Y-68751750D02*
X245022460Y-69551750D01*
X245289126Y-68751750D01*
X246012936Y-69475560D02*
X245974840Y-69513655D01*
X245860555Y-69551750D01*
X245784364Y-69551750D01*
X245670079Y-69513655D01*
X245593888Y-69437465D01*
X245555793Y-69361274D01*
X245517698Y-69208893D01*
X245517698Y-69094607D01*
X245555793Y-68942226D01*
X245593888Y-68866036D01*
X245670079Y-68789846D01*
X245784364Y-68751750D01*
X245860555Y-68751750D01*
X245974840Y-68789846D01*
X246012936Y-68827941D01*
X246812936Y-69475560D02*
X246774840Y-69513655D01*
X246660555Y-69551750D01*
X246584364Y-69551750D01*
X246470079Y-69513655D01*
X246393888Y-69437465D01*
X246355793Y-69361274D01*
X246317698Y-69208893D01*
X246317698Y-69094607D01*
X246355793Y-68942226D01*
X246393888Y-68866036D01*
X246470079Y-68789846D01*
X246584364Y-68751750D01*
X246660555Y-68751750D01*
X246774840Y-68789846D01*
X246812936Y-68827941D01*
X233948079Y-76401750D02*
X234024269Y-76401750D01*
X234100459Y-76439846D01*
X234138555Y-76477941D01*
X234176650Y-76554131D01*
X234214745Y-76706512D01*
X234214745Y-76896988D01*
X234176650Y-77049369D01*
X234138555Y-77125560D01*
X234100459Y-77163655D01*
X234024269Y-77201750D01*
X233948079Y-77201750D01*
X233871888Y-77163655D01*
X233833793Y-77125560D01*
X233795698Y-77049369D01*
X233757602Y-76896988D01*
X233757602Y-76706512D01*
X233795698Y-76554131D01*
X233833793Y-76477941D01*
X233871888Y-76439846D01*
X233948079Y-76401750D01*
X234519507Y-76477941D02*
X234557602Y-76439846D01*
X234633793Y-76401750D01*
X234824269Y-76401750D01*
X234900459Y-76439846D01*
X234938555Y-76477941D01*
X234976650Y-76554131D01*
X234976650Y-76630322D01*
X234938555Y-76744607D01*
X234481412Y-77201750D01*
X234976650Y-77201750D01*
X235281412Y-76477941D02*
X235319507Y-76439846D01*
X235395698Y-76401750D01*
X235586174Y-76401750D01*
X235662364Y-76439846D01*
X235700459Y-76477941D01*
X235738555Y-76554131D01*
X235738555Y-76630322D01*
X235700459Y-76744607D01*
X235243317Y-77201750D01*
X235738555Y-77201750D01*
X234214745Y-82251750D02*
X233757602Y-82251750D01*
X233986174Y-82251750D02*
X233986174Y-81451750D01*
X233909983Y-81566036D01*
X233833793Y-81642226D01*
X233757602Y-81680322D01*
X234709983Y-81451750D02*
X234786174Y-81451750D01*
X234862364Y-81489846D01*
X234900459Y-81527941D01*
X234938555Y-81604131D01*
X234976650Y-81756512D01*
X234976650Y-81946988D01*
X234938555Y-82099369D01*
X234900459Y-82175560D01*
X234862364Y-82213655D01*
X234786174Y-82251750D01*
X234709983Y-82251750D01*
X234633793Y-82213655D01*
X234595698Y-82175560D01*
X234557602Y-82099369D01*
X234519507Y-81946988D01*
X234519507Y-81756512D01*
X234557602Y-81604131D01*
X234595698Y-81527941D01*
X234633793Y-81489846D01*
X234709983Y-81451750D01*
X235471888Y-81451750D02*
X235548079Y-81451750D01*
X235624269Y-81489846D01*
X235662364Y-81527941D01*
X235700459Y-81604131D01*
X235738555Y-81756512D01*
X235738555Y-81946988D01*
X235700459Y-82099369D01*
X235662364Y-82175560D01*
X235624269Y-82213655D01*
X235548079Y-82251750D01*
X235471888Y-82251750D01*
X235395698Y-82213655D01*
X235357602Y-82175560D01*
X235319507Y-82099369D01*
X235281412Y-81946988D01*
X235281412Y-81756512D01*
X235319507Y-81604131D01*
X235357602Y-81527941D01*
X235395698Y-81489846D01*
X235471888Y-81451750D01*
X245022460Y-86531750D02*
X245098650Y-86531750D01*
X245174840Y-86569846D01*
X245212936Y-86607941D01*
X245251031Y-86684131D01*
X245289126Y-86836512D01*
X245289126Y-87026988D01*
X245251031Y-87179369D01*
X245212936Y-87255560D01*
X245174840Y-87293655D01*
X245098650Y-87331750D01*
X245022460Y-87331750D01*
X244946269Y-87293655D01*
X244908174Y-87255560D01*
X244870079Y-87179369D01*
X244831983Y-87026988D01*
X244831983Y-86836512D01*
X244870079Y-86684131D01*
X244908174Y-86607941D01*
X244946269Y-86569846D01*
X245022460Y-86531750D01*
X246051031Y-87331750D02*
X245593888Y-87331750D01*
X245822460Y-87331750D02*
X245822460Y-86531750D01*
X245746269Y-86646036D01*
X245670079Y-86722226D01*
X245593888Y-86760322D01*
X246546269Y-86531750D02*
X246622460Y-86531750D01*
X246698650Y-86569846D01*
X246736745Y-86607941D01*
X246774840Y-86684131D01*
X246812936Y-86836512D01*
X246812936Y-87026988D01*
X246774840Y-87179369D01*
X246736745Y-87255560D01*
X246698650Y-87293655D01*
X246622460Y-87331750D01*
X246546269Y-87331750D01*
X246470079Y-87293655D01*
X246431983Y-87255560D01*
X246393888Y-87179369D01*
X246355793Y-87026988D01*
X246355793Y-86836512D01*
X246393888Y-86684131D01*
X246431983Y-86607941D01*
X246470079Y-86569846D01*
X246546269Y-86531750D01*
X245022460Y-73831750D02*
X245098650Y-73831750D01*
X245174840Y-73869846D01*
X245212936Y-73907941D01*
X245251031Y-73984131D01*
X245289126Y-74136512D01*
X245289126Y-74326988D01*
X245251031Y-74479369D01*
X245212936Y-74555560D01*
X245174840Y-74593655D01*
X245098650Y-74631750D01*
X245022460Y-74631750D01*
X244946269Y-74593655D01*
X244908174Y-74555560D01*
X244870079Y-74479369D01*
X244831983Y-74326988D01*
X244831983Y-74136512D01*
X244870079Y-73984131D01*
X244908174Y-73907941D01*
X244946269Y-73869846D01*
X245022460Y-73831750D01*
X245593888Y-73907941D02*
X245631983Y-73869846D01*
X245708174Y-73831750D01*
X245898650Y-73831750D01*
X245974840Y-73869846D01*
X246012936Y-73907941D01*
X246051031Y-73984131D01*
X246051031Y-74060322D01*
X246012936Y-74174607D01*
X245555793Y-74631750D01*
X246051031Y-74631750D01*
X246431983Y-74631750D02*
X246584364Y-74631750D01*
X246660555Y-74593655D01*
X246698650Y-74555560D01*
X246774840Y-74441274D01*
X246812936Y-74288893D01*
X246812936Y-73984131D01*
X246774840Y-73907941D01*
X246736745Y-73869846D01*
X246660555Y-73831750D01*
X246508174Y-73831750D01*
X246431983Y-73869846D01*
X246393888Y-73907941D01*
X246355793Y-73984131D01*
X246355793Y-74174607D01*
X246393888Y-74250798D01*
X246431983Y-74288893D01*
X246508174Y-74326988D01*
X246660555Y-74326988D01*
X246736745Y-74288893D01*
X246774840Y-74250798D01*
X246812936Y-74174607D01*
X245289126Y-84791750D02*
X244831983Y-84791750D01*
X245060555Y-84791750D02*
X245060555Y-83991750D01*
X244984364Y-84106036D01*
X244908174Y-84182226D01*
X244831983Y-84220322D01*
X246051031Y-84791750D02*
X245593888Y-84791750D01*
X245822460Y-84791750D02*
X245822460Y-83991750D01*
X245746269Y-84106036D01*
X245670079Y-84182226D01*
X245593888Y-84220322D01*
X246812936Y-84791750D02*
X246355793Y-84791750D01*
X246584364Y-84791750D02*
X246584364Y-83991750D01*
X246508174Y-84106036D01*
X246431983Y-84182226D01*
X246355793Y-84220322D01*
X234214745Y-87331750D02*
X233757602Y-87331750D01*
X233986174Y-87331750D02*
X233986174Y-86531750D01*
X233909983Y-86646036D01*
X233833793Y-86722226D01*
X233757602Y-86760322D01*
X234709983Y-86531750D02*
X234786174Y-86531750D01*
X234862364Y-86569846D01*
X234900459Y-86607941D01*
X234938555Y-86684131D01*
X234976650Y-86836512D01*
X234976650Y-87026988D01*
X234938555Y-87179369D01*
X234900459Y-87255560D01*
X234862364Y-87293655D01*
X234786174Y-87331750D01*
X234709983Y-87331750D01*
X234633793Y-87293655D01*
X234595698Y-87255560D01*
X234557602Y-87179369D01*
X234519507Y-87026988D01*
X234519507Y-86836512D01*
X234557602Y-86684131D01*
X234595698Y-86607941D01*
X234633793Y-86569846D01*
X234709983Y-86531750D01*
X235662364Y-86798417D02*
X235662364Y-87331750D01*
X235471888Y-86493655D02*
X235281412Y-87065084D01*
X235776650Y-87065084D01*
X233948079Y-71301750D02*
X234024269Y-71301750D01*
X234100459Y-71339846D01*
X234138555Y-71377941D01*
X234176650Y-71454131D01*
X234214745Y-71606512D01*
X234214745Y-71796988D01*
X234176650Y-71949369D01*
X234138555Y-72025560D01*
X234100459Y-72063655D01*
X234024269Y-72101750D01*
X233948079Y-72101750D01*
X233871888Y-72063655D01*
X233833793Y-72025560D01*
X233795698Y-71949369D01*
X233757602Y-71796988D01*
X233757602Y-71606512D01*
X233795698Y-71454131D01*
X233833793Y-71377941D01*
X233871888Y-71339846D01*
X233948079Y-71301750D01*
X234976650Y-72101750D02*
X234519507Y-72101750D01*
X234748079Y-72101750D02*
X234748079Y-71301750D01*
X234671888Y-71416036D01*
X234595698Y-71492226D01*
X234519507Y-71530322D01*
X235243317Y-71301750D02*
X235776650Y-71301750D01*
X235433793Y-72101750D01*
X245022460Y-76371750D02*
X245098650Y-76371750D01*
X245174840Y-76409846D01*
X245212936Y-76447941D01*
X245251031Y-76524131D01*
X245289126Y-76676512D01*
X245289126Y-76866988D01*
X245251031Y-77019369D01*
X245212936Y-77095560D01*
X245174840Y-77133655D01*
X245098650Y-77171750D01*
X245022460Y-77171750D01*
X244946269Y-77133655D01*
X244908174Y-77095560D01*
X244870079Y-77019369D01*
X244831983Y-76866988D01*
X244831983Y-76676512D01*
X244870079Y-76524131D01*
X244908174Y-76447941D01*
X244946269Y-76409846D01*
X245022460Y-76371750D01*
X245784364Y-76371750D02*
X245860555Y-76371750D01*
X245936745Y-76409846D01*
X245974840Y-76447941D01*
X246012936Y-76524131D01*
X246051031Y-76676512D01*
X246051031Y-76866988D01*
X246012936Y-77019369D01*
X245974840Y-77095560D01*
X245936745Y-77133655D01*
X245860555Y-77171750D01*
X245784364Y-77171750D01*
X245708174Y-77133655D01*
X245670079Y-77095560D01*
X245631983Y-77019369D01*
X245593888Y-76866988D01*
X245593888Y-76676512D01*
X245631983Y-76524131D01*
X245670079Y-76447941D01*
X245708174Y-76409846D01*
X245784364Y-76371750D01*
X246355793Y-76447941D02*
X246393888Y-76409846D01*
X246470079Y-76371750D01*
X246660555Y-76371750D01*
X246736745Y-76409846D01*
X246774840Y-76447941D01*
X246812936Y-76524131D01*
X246812936Y-76600322D01*
X246774840Y-76714607D01*
X246317698Y-77171750D01*
X246812936Y-77171750D01*
X245130412Y-63709846D02*
X245054221Y-63671750D01*
X244939936Y-63671750D01*
X244825650Y-63709846D01*
X244749459Y-63786036D01*
X244711364Y-63862226D01*
X244673269Y-64014607D01*
X244673269Y-64128893D01*
X244711364Y-64281274D01*
X244749459Y-64357465D01*
X244825650Y-64433655D01*
X244939936Y-64471750D01*
X245016126Y-64471750D01*
X245130412Y-64433655D01*
X245168507Y-64395560D01*
X245168507Y-64128893D01*
X245016126Y-64128893D01*
X245511364Y-64471750D02*
X245511364Y-63671750D01*
X245968507Y-64471750D01*
X245968507Y-63671750D01*
X246349459Y-64471750D02*
X246349459Y-63671750D01*
X246539936Y-63671750D01*
X246654221Y-63709846D01*
X246730412Y-63786036D01*
X246768507Y-63862226D01*
X246806602Y-64014607D01*
X246806602Y-64128893D01*
X246768507Y-64281274D01*
X246730412Y-64357465D01*
X246654221Y-64433655D01*
X246539936Y-64471750D01*
X246349459Y-64471750D01*
X245022460Y-71291750D02*
X245098650Y-71291750D01*
X245174840Y-71329846D01*
X245212936Y-71367941D01*
X245251031Y-71444131D01*
X245289126Y-71596512D01*
X245289126Y-71786988D01*
X245251031Y-71939369D01*
X245212936Y-72015560D01*
X245174840Y-72053655D01*
X245098650Y-72091750D01*
X245022460Y-72091750D01*
X244946269Y-72053655D01*
X244908174Y-72015560D01*
X244870079Y-71939369D01*
X244831983Y-71786988D01*
X244831983Y-71596512D01*
X244870079Y-71444131D01*
X244908174Y-71367941D01*
X244946269Y-71329846D01*
X245022460Y-71291750D01*
X245555793Y-71291750D02*
X246051031Y-71291750D01*
X245784364Y-71596512D01*
X245898650Y-71596512D01*
X245974840Y-71634607D01*
X246012936Y-71672703D01*
X246051031Y-71748893D01*
X246051031Y-71939369D01*
X246012936Y-72015560D01*
X245974840Y-72053655D01*
X245898650Y-72091750D01*
X245670079Y-72091750D01*
X245593888Y-72053655D01*
X245555793Y-72015560D01*
X246812936Y-72091750D02*
X246355793Y-72091750D01*
X246584364Y-72091750D02*
X246584364Y-71291750D01*
X246508174Y-71406036D01*
X246431983Y-71482226D01*
X246355793Y-71520322D01*
X234214745Y-68789846D02*
X234138554Y-68751750D01*
X234024269Y-68751750D01*
X233909983Y-68789846D01*
X233833792Y-68866036D01*
X233795697Y-68942226D01*
X233757602Y-69094607D01*
X233757602Y-69208893D01*
X233795697Y-69361274D01*
X233833792Y-69437465D01*
X233909983Y-69513655D01*
X234024269Y-69551750D01*
X234100459Y-69551750D01*
X234214745Y-69513655D01*
X234252840Y-69475560D01*
X234252840Y-69208893D01*
X234100459Y-69208893D01*
X234595697Y-69551750D02*
X234595697Y-68751750D01*
X235052840Y-69551750D01*
X235052840Y-68751750D01*
X235433792Y-69551750D02*
X235433792Y-68751750D01*
X235624269Y-68751750D01*
X235738554Y-68789846D01*
X235814745Y-68866036D01*
X235852840Y-68942226D01*
X235890935Y-69094607D01*
X235890935Y-69208893D01*
X235852840Y-69361274D01*
X235814745Y-69437465D01*
X235738554Y-69513655D01*
X235624269Y-69551750D01*
X235433792Y-69551750D01*
X233948079Y-63601750D02*
X234024269Y-63601750D01*
X234100459Y-63639846D01*
X234138555Y-63677941D01*
X234176650Y-63754131D01*
X234214745Y-63906512D01*
X234214745Y-64096988D01*
X234176650Y-64249369D01*
X234138555Y-64325560D01*
X234100459Y-64363655D01*
X234024269Y-64401750D01*
X233948079Y-64401750D01*
X233871888Y-64363655D01*
X233833793Y-64325560D01*
X233795698Y-64249369D01*
X233757602Y-64096988D01*
X233757602Y-63906512D01*
X233795698Y-63754131D01*
X233833793Y-63677941D01*
X233871888Y-63639846D01*
X233948079Y-63601750D01*
X234709983Y-63601750D02*
X234786174Y-63601750D01*
X234862364Y-63639846D01*
X234900459Y-63677941D01*
X234938555Y-63754131D01*
X234976650Y-63906512D01*
X234976650Y-64096988D01*
X234938555Y-64249369D01*
X234900459Y-64325560D01*
X234862364Y-64363655D01*
X234786174Y-64401750D01*
X234709983Y-64401750D01*
X234633793Y-64363655D01*
X234595698Y-64325560D01*
X234557602Y-64249369D01*
X234519507Y-64096988D01*
X234519507Y-63906512D01*
X234557602Y-63754131D01*
X234595698Y-63677941D01*
X234633793Y-63639846D01*
X234709983Y-63601750D01*
X235433793Y-63944607D02*
X235357602Y-63906512D01*
X235319507Y-63868417D01*
X235281412Y-63792226D01*
X235281412Y-63754131D01*
X235319507Y-63677941D01*
X235357602Y-63639846D01*
X235433793Y-63601750D01*
X235586174Y-63601750D01*
X235662364Y-63639846D01*
X235700459Y-63677941D01*
X235738555Y-63754131D01*
X235738555Y-63792226D01*
X235700459Y-63868417D01*
X235662364Y-63906512D01*
X235586174Y-63944607D01*
X235433793Y-63944607D01*
X235357602Y-63982703D01*
X235319507Y-64020798D01*
X235281412Y-64096988D01*
X235281412Y-64249369D01*
X235319507Y-64325560D01*
X235357602Y-64363655D01*
X235433793Y-64401750D01*
X235586174Y-64401750D01*
X235662364Y-64363655D01*
X235700459Y-64325560D01*
X235738555Y-64249369D01*
X235738555Y-64096988D01*
X235700459Y-64020798D01*
X235662364Y-63982703D01*
X235586174Y-63944607D01*
%TO.C,REF\u002A\u002A*%
X245099991Y-107666952D02*
X244623801Y-108000285D01*
X245099991Y-108238380D02*
X244099991Y-108238380D01*
X244099991Y-107857428D01*
X244147611Y-107762190D01*
X244195230Y-107714571D01*
X244290468Y-107666952D01*
X244433325Y-107666952D01*
X244528563Y-107714571D01*
X244576182Y-107762190D01*
X244623801Y-107857428D01*
X244623801Y-108238380D01*
X244576182Y-107238380D02*
X244576182Y-106905047D01*
X245099991Y-106762190D02*
X245099991Y-107238380D01*
X244099991Y-107238380D01*
X244099991Y-106762190D01*
X244576182Y-106000285D02*
X244576182Y-106333619D01*
X245099991Y-106333619D02*
X244099991Y-106333619D01*
X244099991Y-105857428D01*
X244099991Y-105333619D02*
X244338087Y-105333619D01*
X244242849Y-105571714D02*
X244338087Y-105333619D01*
X244242849Y-105095523D01*
X244528563Y-105476476D02*
X244338087Y-105333619D01*
X244528563Y-105190761D01*
X244099991Y-104571714D02*
X244338087Y-104571714D01*
X244242849Y-104809809D02*
X244338087Y-104571714D01*
X244242849Y-104333619D01*
X244528563Y-104714571D02*
X244338087Y-104571714D01*
X244528563Y-104428857D01*
%TO.C,OL2*%
X236609080Y-98805475D02*
X236609080Y-98138809D01*
X236609080Y-98329285D02*
X236656699Y-98234047D01*
X236704318Y-98186428D01*
X236799556Y-98138809D01*
X236894794Y-98138809D01*
X237228128Y-98805475D02*
X237228128Y-98138809D01*
X237228128Y-97805475D02*
X237180509Y-97853095D01*
X237228128Y-97900714D01*
X237275747Y-97853095D01*
X237228128Y-97805475D01*
X237228128Y-97900714D01*
X238132890Y-98138809D02*
X238132890Y-98948333D01*
X238085271Y-99043571D01*
X238037651Y-99091190D01*
X237942413Y-99138809D01*
X237799556Y-99138809D01*
X237704318Y-99091190D01*
X238132890Y-98757856D02*
X238037651Y-98805475D01*
X237847175Y-98805475D01*
X237751937Y-98757856D01*
X237704318Y-98710237D01*
X237656699Y-98614999D01*
X237656699Y-98329285D01*
X237704318Y-98234047D01*
X237751937Y-98186428D01*
X237847175Y-98138809D01*
X238037651Y-98138809D01*
X238132890Y-98186428D01*
X238609080Y-98805475D02*
X238609080Y-97805475D01*
X239037651Y-98805475D02*
X239037651Y-98281666D01*
X238990032Y-98186428D01*
X238894794Y-98138809D01*
X238751937Y-98138809D01*
X238656699Y-98186428D01*
X238609080Y-98234047D01*
X239370985Y-98138809D02*
X239751937Y-98138809D01*
X239513842Y-97805475D02*
X239513842Y-98662618D01*
X239561461Y-98757856D01*
X239656699Y-98805475D01*
X239751937Y-98805475D01*
X240990032Y-98805475D02*
X240894794Y-98757856D01*
X240847175Y-98710237D01*
X240799556Y-98614999D01*
X240799556Y-98329285D01*
X240847175Y-98234047D01*
X240894794Y-98186428D01*
X240990032Y-98138809D01*
X241132890Y-98138809D01*
X241228128Y-98186428D01*
X241275747Y-98234047D01*
X241323366Y-98329285D01*
X241323366Y-98614999D01*
X241275747Y-98710237D01*
X241228128Y-98757856D01*
X241132890Y-98805475D01*
X240990032Y-98805475D01*
X241894794Y-98805475D02*
X241799556Y-98757856D01*
X241751937Y-98662618D01*
X241751937Y-97805475D01*
X242656699Y-98757856D02*
X242561461Y-98805475D01*
X242370985Y-98805475D01*
X242275747Y-98757856D01*
X242228128Y-98662618D01*
X242228128Y-98281666D01*
X242275747Y-98186428D01*
X242370985Y-98138809D01*
X242561461Y-98138809D01*
X242656699Y-98186428D01*
X242704318Y-98281666D01*
X242704318Y-98376904D01*
X242228128Y-98472142D01*
X243561461Y-98805475D02*
X243561461Y-97805475D01*
X243561461Y-98757856D02*
X243466223Y-98805475D01*
X243275747Y-98805475D01*
X243180509Y-98757856D01*
X243132890Y-98710237D01*
X243085271Y-98614999D01*
X243085271Y-98329285D01*
X243132890Y-98234047D01*
X243180509Y-98186428D01*
X243275747Y-98138809D01*
X243466223Y-98138809D01*
X243561461Y-98186428D01*
%TO.C,OL1*%
X237228127Y-93385475D02*
X237132889Y-93337856D01*
X237085270Y-93242618D01*
X237085270Y-92385475D01*
X237990031Y-93337856D02*
X237894793Y-93385475D01*
X237704317Y-93385475D01*
X237609079Y-93337856D01*
X237561460Y-93242618D01*
X237561460Y-92861666D01*
X237609079Y-92766428D01*
X237704317Y-92718809D01*
X237894793Y-92718809D01*
X237990031Y-92766428D01*
X238037650Y-92861666D01*
X238037650Y-92956904D01*
X237561460Y-93052142D01*
X238323365Y-92718809D02*
X238704317Y-92718809D01*
X238466222Y-93385475D02*
X238466222Y-92528333D01*
X238513841Y-92433095D01*
X238609079Y-92385475D01*
X238704317Y-92385475D01*
X238894793Y-92718809D02*
X239275746Y-92718809D01*
X239037650Y-92385475D02*
X239037650Y-93242618D01*
X239085270Y-93337856D01*
X239180508Y-93385475D01*
X239275746Y-93385475D01*
X240513841Y-93385475D02*
X240418603Y-93337856D01*
X240370984Y-93290237D01*
X240323365Y-93194999D01*
X240323365Y-92909285D01*
X240370984Y-92814047D01*
X240418603Y-92766428D01*
X240513841Y-92718809D01*
X240656698Y-92718809D01*
X240751936Y-92766428D01*
X240799555Y-92814047D01*
X240847174Y-92909285D01*
X240847174Y-93194999D01*
X240799555Y-93290237D01*
X240751936Y-93337856D01*
X240656698Y-93385475D01*
X240513841Y-93385475D01*
X241418603Y-93385475D02*
X241323365Y-93337856D01*
X241275746Y-93242618D01*
X241275746Y-92385475D01*
X242180508Y-93337856D02*
X242085270Y-93385475D01*
X241894793Y-93385475D01*
X241799555Y-93337856D01*
X241751936Y-93242618D01*
X241751936Y-92861666D01*
X241799555Y-92766428D01*
X241894793Y-92718809D01*
X242085270Y-92718809D01*
X242180508Y-92766428D01*
X242228127Y-92861666D01*
X242228127Y-92956904D01*
X241751936Y-93052142D01*
X243085270Y-93385475D02*
X243085270Y-92385475D01*
X243085270Y-93337856D02*
X242990031Y-93385475D01*
X242799555Y-93385475D01*
X242704317Y-93337856D01*
X242656698Y-93290237D01*
X242609079Y-93194999D01*
X242609079Y-92909285D01*
X242656698Y-92814047D01*
X242704317Y-92766428D01*
X242799555Y-92718809D01*
X242990031Y-92718809D01*
X243085270Y-92766428D01*
D13*
%TO.C,RSW1*%
X206220270Y-44765595D02*
X206220270Y-48665595D01*
X198500270Y-44765595D02*
X206220270Y-44765595D01*
X198500270Y-44765595D02*
X198500270Y-48665595D01*
X205160270Y-48435595D02*
X205700270Y-48435595D01*
X200660270Y-48435595D02*
X204060270Y-48435595D01*
X205700270Y-48435595D02*
X205700270Y-48665595D01*
X199020270Y-48435595D02*
X199020270Y-48665595D01*
X199020270Y-48435595D02*
X199560270Y-48435595D01*
D14*
%TO.C,REF\u002A\u002A*%
X175749136Y-62795047D02*
G75*
G03*
X174715270Y-66945595I19286117J-7008044D01*
G01*
X197892770Y-90123095D02*
G75*
G03*
X202043317Y-89089229I-2857500J20320000D01*
G01*
X174715270Y-72660595D02*
G75*
G03*
X175749136Y-76811142I20319953J2857490D01*
G01*
X195035270Y-80598096D02*
G75*
G03*
X196163655Y-80538959I0J10794901D01*
G01*
X192177770Y-49483095D02*
G75*
G03*
X188027222Y-50516961I2857496J-20319983D01*
G01*
X188027224Y-89089230D02*
G75*
G03*
X192177770Y-90123095I7008046J19286135D01*
G01*
X195035270Y-59008095D02*
G75*
G03*
X193906885Y-59067231I-6J-10794921D01*
G01*
X215355270Y-66945595D02*
G75*
G03*
X214321405Y-62795050I-20320019J-2857506D01*
G01*
X196163655Y-59067232D02*
G75*
G03*
X195035270Y-59008095I-1128385J-10735763D01*
G01*
X193906885Y-80538959D02*
G75*
G03*
X195035270Y-80598095I1128379J10735785D01*
G01*
X214321405Y-76811141D02*
G75*
G03*
X215355270Y-72660595I-19286185J7008058D01*
G01*
X202043317Y-50516961D02*
G75*
G03*
X197892770Y-49483095I-7008047J-19286134D01*
G01*
G36*
X194215295Y-84291493D02*
G01*
X194237998Y-84314356D01*
X194272477Y-84349887D01*
X194316746Y-84395979D01*
X194368813Y-84450525D01*
X194426692Y-84511419D01*
X194488391Y-84576554D01*
X194551924Y-84643824D01*
X194615299Y-84711122D01*
X194676529Y-84776341D01*
X194733625Y-84837376D01*
X194784597Y-84892119D01*
X194827457Y-84938464D01*
X194860215Y-84974304D01*
X194880883Y-84997533D01*
X194883176Y-85000224D01*
X194911477Y-85033859D01*
X194291463Y-85033859D01*
X194118113Y-84857790D01*
X194064371Y-84803047D01*
X194014088Y-84751534D01*
X193970272Y-84706354D01*
X193935926Y-84670608D01*
X193914058Y-84647399D01*
X193910881Y-84643907D01*
X193876999Y-84606092D01*
X194038034Y-84444748D01*
X194087747Y-84395293D01*
X194131971Y-84351968D01*
X194168118Y-84317255D01*
X194193600Y-84293635D01*
X194205829Y-84283587D01*
X194206360Y-84283404D01*
X194215295Y-84291493D01*
G37*
D15*
X194215295Y-84291493D02*
X194237998Y-84314356D01*
X194272477Y-84349887D01*
X194316746Y-84395979D01*
X194368813Y-84450525D01*
X194426692Y-84511419D01*
X194488391Y-84576554D01*
X194551924Y-84643824D01*
X194615299Y-84711122D01*
X194676529Y-84776341D01*
X194733625Y-84837376D01*
X194784597Y-84892119D01*
X194827457Y-84938464D01*
X194860215Y-84974304D01*
X194880883Y-84997533D01*
X194883176Y-85000224D01*
X194911477Y-85033859D01*
X194291463Y-85033859D01*
X194118113Y-84857790D01*
X194064371Y-84803047D01*
X194014088Y-84751534D01*
X193970272Y-84706354D01*
X193935926Y-84670608D01*
X193914058Y-84647399D01*
X193910881Y-84643907D01*
X193876999Y-84606092D01*
X194038034Y-84444748D01*
X194087747Y-84395293D01*
X194131971Y-84351968D01*
X194168118Y-84317255D01*
X194193600Y-84293635D01*
X194205829Y-84283587D01*
X194206360Y-84283404D01*
X194215295Y-84291493D01*
G36*
X195109159Y-83987684D02*
G01*
X195107756Y-83881055D01*
X195106712Y-83758399D01*
X195106048Y-83621127D01*
X195105787Y-83470653D01*
X195105784Y-83458917D01*
X195105697Y-82767203D01*
X195613401Y-82257177D01*
X195613549Y-82750745D01*
X195613741Y-82854985D01*
X195614230Y-82951730D01*
X195614980Y-83038616D01*
X195615956Y-83113278D01*
X195617125Y-83173353D01*
X195618452Y-83216476D01*
X195619901Y-83240283D01*
X195620809Y-83244313D01*
X195633240Y-83237999D01*
X195658086Y-83221656D01*
X195682220Y-83204454D01*
X195796917Y-83133732D01*
X195919133Y-83084628D01*
X196049516Y-83056952D01*
X196188717Y-83050514D01*
X196206529Y-83051182D01*
X196296164Y-83057734D01*
X196372647Y-83069671D01*
X196444299Y-83089163D01*
X196519437Y-83118380D01*
X196589288Y-83151019D01*
X196717221Y-83226312D01*
X196830141Y-83318292D01*
X196927035Y-83425281D01*
X197006893Y-83545606D01*
X197068703Y-83677591D01*
X197111455Y-83819560D01*
X197134136Y-83969839D01*
X197137697Y-84059509D01*
X197127406Y-84211987D01*
X197096050Y-84356551D01*
X197042905Y-84495787D01*
X196985650Y-84602706D01*
X196899938Y-84722999D01*
X196798325Y-84827848D01*
X196682992Y-84916170D01*
X196556117Y-84986884D01*
X196419881Y-85038907D01*
X196276462Y-85071160D01*
X196128041Y-85082559D01*
X196027795Y-85078076D01*
X195883187Y-85053195D01*
X195742619Y-85006920D01*
X195609446Y-84940941D01*
X195487026Y-84856944D01*
X195378714Y-84756618D01*
X195370320Y-84747452D01*
X195289189Y-84643332D01*
X195219497Y-84525150D01*
X195164331Y-84399287D01*
X195126778Y-84272127D01*
X195117909Y-84225677D01*
X195115296Y-84197282D01*
X195112951Y-84147210D01*
X195111482Y-84096876D01*
X195607820Y-84096876D01*
X195618392Y-84194425D01*
X195648824Y-84288444D01*
X195677478Y-84342589D01*
X195744412Y-84430872D01*
X195823893Y-84501749D01*
X195913325Y-84554242D01*
X196010111Y-84587374D01*
X196111652Y-84600168D01*
X196215353Y-84591647D01*
X196288180Y-84572359D01*
X196331177Y-84556273D01*
X196372082Y-84538913D01*
X196388249Y-84531137D01*
X196433535Y-84500133D01*
X196482858Y-84453939D01*
X196530915Y-84398483D01*
X196572400Y-84339689D01*
X196593888Y-84301362D01*
X196614069Y-84257116D01*
X196626714Y-84218508D01*
X196634071Y-84176216D01*
X196638389Y-84120913D01*
X196638671Y-84115623D01*
X196635303Y-84008378D01*
X196612447Y-83910486D01*
X196568795Y-83817063D01*
X196551025Y-83788534D01*
X196486483Y-83710630D01*
X196407666Y-83648460D01*
X196318030Y-83602964D01*
X196221031Y-83575086D01*
X196120127Y-83565766D01*
X196018775Y-83575948D01*
X195920429Y-83606573D01*
X195906426Y-83612859D01*
X195818474Y-83665808D01*
X195744484Y-83734022D01*
X195685441Y-83814368D01*
X195642328Y-83903715D01*
X195616126Y-83998928D01*
X195607820Y-84096876D01*
X195111482Y-84096876D01*
X195110898Y-84076873D01*
X195109159Y-83987684D01*
G37*
X195109159Y-83987684D02*
X195107756Y-83881055D01*
X195106712Y-83758399D01*
X195106048Y-83621127D01*
X195105787Y-83470653D01*
X195105784Y-83458917D01*
X195105697Y-82767203D01*
X195613401Y-82257177D01*
X195613549Y-82750745D01*
X195613741Y-82854985D01*
X195614230Y-82951730D01*
X195614980Y-83038616D01*
X195615956Y-83113278D01*
X195617125Y-83173353D01*
X195618452Y-83216476D01*
X195619901Y-83240283D01*
X195620809Y-83244313D01*
X195633240Y-83237999D01*
X195658086Y-83221656D01*
X195682220Y-83204454D01*
X195796917Y-83133732D01*
X195919133Y-83084628D01*
X196049516Y-83056952D01*
X196188717Y-83050514D01*
X196206529Y-83051182D01*
X196296164Y-83057734D01*
X196372647Y-83069671D01*
X196444299Y-83089163D01*
X196519437Y-83118380D01*
X196589288Y-83151019D01*
X196717221Y-83226312D01*
X196830141Y-83318292D01*
X196927035Y-83425281D01*
X197006893Y-83545606D01*
X197068703Y-83677591D01*
X197111455Y-83819560D01*
X197134136Y-83969839D01*
X197137697Y-84059509D01*
X197127406Y-84211987D01*
X197096050Y-84356551D01*
X197042905Y-84495787D01*
X196985650Y-84602706D01*
X196899938Y-84722999D01*
X196798325Y-84827848D01*
X196682992Y-84916170D01*
X196556117Y-84986884D01*
X196419881Y-85038907D01*
X196276462Y-85071160D01*
X196128041Y-85082559D01*
X196027795Y-85078076D01*
X195883187Y-85053195D01*
X195742619Y-85006920D01*
X195609446Y-84940941D01*
X195487026Y-84856944D01*
X195378714Y-84756618D01*
X195370320Y-84747452D01*
X195289189Y-84643332D01*
X195219497Y-84525150D01*
X195164331Y-84399287D01*
X195126778Y-84272127D01*
X195117909Y-84225677D01*
X195115296Y-84197282D01*
X195112951Y-84147210D01*
X195111482Y-84096876D01*
X195607820Y-84096876D01*
X195618392Y-84194425D01*
X195648824Y-84288444D01*
X195677478Y-84342589D01*
X195744412Y-84430872D01*
X195823893Y-84501749D01*
X195913325Y-84554242D01*
X196010111Y-84587374D01*
X196111652Y-84600168D01*
X196215353Y-84591647D01*
X196288180Y-84572359D01*
X196331177Y-84556273D01*
X196372082Y-84538913D01*
X196388249Y-84531137D01*
X196433535Y-84500133D01*
X196482858Y-84453939D01*
X196530915Y-84398483D01*
X196572400Y-84339689D01*
X196593888Y-84301362D01*
X196614069Y-84257116D01*
X196626714Y-84218508D01*
X196634071Y-84176216D01*
X196638389Y-84120913D01*
X196638671Y-84115623D01*
X196635303Y-84008378D01*
X196612447Y-83910486D01*
X196568795Y-83817063D01*
X196551025Y-83788534D01*
X196486483Y-83710630D01*
X196407666Y-83648460D01*
X196318030Y-83602964D01*
X196221031Y-83575086D01*
X196120127Y-83565766D01*
X196018775Y-83575948D01*
X195920429Y-83606573D01*
X195906426Y-83612859D01*
X195818474Y-83665808D01*
X195744484Y-83734022D01*
X195685441Y-83814368D01*
X195642328Y-83903715D01*
X195616126Y-83998928D01*
X195607820Y-84096876D01*
X195111482Y-84096876D01*
X195110898Y-84076873D01*
X195109159Y-83987684D01*
G36*
X193408515Y-83884962D02*
G01*
X194211461Y-83082262D01*
X194499829Y-83085356D01*
X194788197Y-83088449D01*
X193940973Y-83948586D01*
X193823048Y-84068309D01*
X193708249Y-84184858D01*
X193597795Y-84296998D01*
X193492903Y-84403491D01*
X193394791Y-84503102D01*
X193304676Y-84594595D01*
X193223777Y-84676732D01*
X193153310Y-84748277D01*
X193094494Y-84807995D01*
X193048547Y-84854649D01*
X193016686Y-84887002D01*
X193002905Y-84900998D01*
X192912061Y-84993274D01*
X192912061Y-82251404D01*
X193408515Y-82251404D01*
X193408515Y-83884962D01*
G37*
X193408515Y-83884962D02*
X194211461Y-83082262D01*
X194499829Y-83085356D01*
X194788197Y-83088449D01*
X193940973Y-83948586D01*
X193823048Y-84068309D01*
X193708249Y-84184858D01*
X193597795Y-84296998D01*
X193492903Y-84403491D01*
X193394791Y-84503102D01*
X193304676Y-84594595D01*
X193223777Y-84676732D01*
X193153310Y-84748277D01*
X193094494Y-84807995D01*
X193048547Y-84854649D01*
X193016686Y-84887002D01*
X193002905Y-84900998D01*
X192912061Y-84993274D01*
X192912061Y-82251404D01*
X193408515Y-82251404D01*
X193408515Y-83884962D01*
D14*
%TO.C,JST_PH2_SMT*%
X241815657Y-100596925D02*
X237415657Y-100596925D01*
X234215657Y-107096925D02*
X234215657Y-101896925D01*
X241815657Y-108396925D02*
X237415657Y-108396925D01*
X241815657Y-100596925D02*
X241815657Y-108396925D01*
D16*
%TO.C,U2*%
X231395269Y-90779846D02*
X249175269Y-90779846D01*
X249175269Y-90779846D02*
X249175269Y-60299846D01*
X231395269Y-60299846D02*
X231395269Y-90779846D01*
X231395269Y-57759846D02*
X231395269Y-60299846D01*
X249175269Y-57759846D02*
X231395269Y-57759846D01*
X249175269Y-60299846D02*
X249175269Y-57759846D01*
D13*
%TO.C,REF\u002A\u002A*%
X249577611Y-107733619D02*
X250867611Y-107733619D01*
X251077611Y-107533619D02*
X251077611Y-106633619D01*
X246727611Y-104933619D02*
X246727611Y-104733619D01*
X249577611Y-109183619D02*
X249577611Y-103483619D01*
X250867611Y-107733619D02*
X251077611Y-107533619D01*
X248567611Y-102883619D02*
X247777611Y-102883619D01*
X250867611Y-106433619D02*
X249577611Y-106433619D01*
X250867611Y-106433619D02*
X251077611Y-106633619D01*
X246727611Y-107933619D02*
X246727611Y-106233619D01*
X247777611Y-109783619D02*
X248567611Y-109783619D01*
%TO.C,D34*%
G36*
X164235270Y-57723095D02*
G01*
X163335270Y-57723095D01*
X163335270Y-56823095D01*
X164235270Y-57723095D01*
G37*
D11*
X164235270Y-57723095D02*
X163335270Y-57723095D01*
X163335270Y-56823095D01*
X164235270Y-57723095D01*
%TO.C,D26*%
G36*
X182235269Y-84857095D02*
G01*
X181335269Y-84857095D01*
X181335269Y-83957095D01*
X182235269Y-84857095D01*
G37*
X182235269Y-84857095D02*
X181335269Y-84857095D01*
X181335269Y-83957095D01*
X182235269Y-84857095D01*
%TO.C,D31*%
G36*
X164235271Y-74697095D02*
G01*
X163335271Y-74697095D01*
X163335271Y-73797095D01*
X164235271Y-74697095D01*
G37*
X164235271Y-74697095D02*
X163335271Y-74697095D01*
X163335271Y-73797095D01*
X164235271Y-74697095D01*
%TO.C,D28*%
G36*
X164235270Y-91715095D02*
G01*
X163335270Y-91715095D01*
X163335270Y-90815095D01*
X164235270Y-91715095D01*
G37*
X164235270Y-91715095D02*
X163335270Y-91715095D01*
X163335270Y-90815095D01*
X164235270Y-91715095D01*
%TO.C,D32*%
G36*
X200235270Y-73173096D02*
G01*
X199335270Y-73173096D01*
X199335270Y-72273096D01*
X200235270Y-73173096D01*
G37*
X200235270Y-73173096D02*
X199335270Y-73173096D01*
X199335270Y-72273096D01*
X200235270Y-73173096D01*
%TO.C,D21*%
G36*
X218235269Y-58723095D02*
G01*
X217335269Y-58723095D01*
X217335269Y-57823095D01*
X218235269Y-58723095D01*
G37*
X218235269Y-58723095D02*
X217335269Y-58723095D01*
X217335269Y-57823095D01*
X218235269Y-58723095D01*
%TO.C,D19*%
G36*
X146235270Y-69723095D02*
G01*
X145335270Y-69723095D01*
X145335270Y-68823095D01*
X146235270Y-69723095D01*
G37*
X146235270Y-69723095D02*
X145335270Y-69723095D01*
X145335270Y-68823095D01*
X146235270Y-69723095D01*
%TO.C,D23*%
G36*
X182235270Y-67839095D02*
G01*
X181335270Y-67839095D01*
X181335270Y-66939095D01*
X182235270Y-67839095D01*
G37*
X182235270Y-67839095D02*
X181335270Y-67839095D01*
X181335270Y-66939095D01*
X182235270Y-67839095D01*
%TO.C,D22*%
G36*
X146235270Y-86773095D02*
G01*
X145335270Y-86773095D01*
X145335270Y-85873095D01*
X146235270Y-86773095D01*
G37*
X146235270Y-86773095D02*
X145335270Y-86773095D01*
X145335270Y-85873095D01*
X146235270Y-86773095D01*
%TO.C,D35*%
G36*
X200235271Y-56223095D02*
G01*
X199335271Y-56223095D01*
X199335271Y-55323095D01*
X200235271Y-56223095D01*
G37*
X200235271Y-56223095D02*
X199335271Y-56223095D01*
X199335271Y-55323095D01*
X200235271Y-56223095D01*
%TO.C,D25*%
G36*
X146235271Y-103723095D02*
G01*
X145335271Y-103723095D01*
X145335271Y-102823095D01*
X146235271Y-103723095D01*
G37*
X146235271Y-103723095D02*
X145335271Y-103723095D01*
X145335271Y-102823095D01*
X146235271Y-103723095D01*
%TO.C,D24*%
G36*
X218215270Y-75713096D02*
G01*
X217315270Y-75713096D01*
X217315270Y-74813096D01*
X218215270Y-75713096D01*
G37*
X218215270Y-75713096D02*
X217315270Y-75713096D01*
X217315270Y-74813096D01*
X218215270Y-75713096D01*
%TO.C,D30*%
G36*
X199574984Y-108747581D02*
G01*
X198678409Y-108669141D01*
X198756849Y-107772566D01*
X199574984Y-108747581D01*
G37*
X199574984Y-108747581D02*
X198678409Y-108669141D01*
X198756849Y-107772566D01*
X199574984Y-108747581D01*
%TO.C,D29*%
G36*
X200235270Y-90191096D02*
G01*
X199335270Y-90191096D01*
X199335270Y-89291096D01*
X200235270Y-90191096D01*
G37*
X200235270Y-90191096D02*
X199335270Y-90191096D01*
X199335270Y-89291096D01*
X200235270Y-90191096D01*
%TO.C,D33*%
G36*
X219470759Y-111677347D02*
G01*
X218601426Y-111444410D01*
X218834363Y-110575077D01*
X219470759Y-111677347D01*
G37*
X219470759Y-111677347D02*
X218601426Y-111444410D01*
X218834363Y-110575077D01*
X219470759Y-111677347D01*
%TO.C,D20*%
G36*
X182235270Y-50723095D02*
G01*
X181335270Y-50723095D01*
X181335270Y-49823095D01*
X182235270Y-50723095D01*
G37*
X182235270Y-50723095D02*
X181335270Y-50723095D01*
X181335270Y-49823095D01*
X182235270Y-50723095D01*
%TO.C,D36*%
G36*
X238588381Y-118026395D02*
G01*
X237772704Y-117646039D01*
X238153061Y-116830362D01*
X238588381Y-118026395D01*
G37*
X238588381Y-118026395D02*
X237772704Y-117646039D01*
X238153061Y-116830362D01*
X238588381Y-118026395D01*
%TO.C,D27*%
G36*
X218215270Y-92731095D02*
G01*
X217315270Y-92731095D01*
X217315270Y-91831095D01*
X218215270Y-92731095D01*
G37*
X218215270Y-92731095D02*
X217315270Y-92731095D01*
X217315270Y-91831095D01*
X218215270Y-92731095D01*
%TD*%
D17*
%TO.C,JST_PH2_SMT*%
X239415657Y-103496925D03*
X239415657Y-105496925D03*
%TD*%
D18*
%TO.C,U2*%
X232665269Y-61569846D03*
X232665269Y-64109846D03*
X232665269Y-66649846D03*
X232665269Y-69189846D03*
X232665269Y-71729846D03*
X232665269Y-74269846D03*
X232665269Y-76809846D03*
X232665269Y-79349846D03*
X232665269Y-81889846D03*
X232665269Y-84429846D03*
X232665269Y-86969846D03*
X232665269Y-89509846D03*
X247905269Y-89509846D03*
X247905269Y-86969846D03*
X247905269Y-84429846D03*
X247905269Y-81889846D03*
X247905269Y-79349846D03*
X247905269Y-76809846D03*
X247905269Y-74269846D03*
X247905269Y-71729846D03*
X247905269Y-69189846D03*
X247905269Y-66649846D03*
X247905269Y-64109846D03*
X247905269Y-61569846D03*
X235205269Y-84429846D03*
X237745269Y-84429846D03*
X240285269Y-84429846D03*
%TD*%
D19*
%TO.C,OL2*%
X236275271Y-96303095D03*
X238815271Y-96303095D03*
X241355271Y-96303095D03*
X243895271Y-96303095D03*
%TD*%
%TO.C,OL1*%
X236275270Y-94483095D03*
X238815270Y-94483095D03*
X241355270Y-94483095D03*
X243895270Y-94483095D03*
%TD*%
M02*
